<?xml version="1.0" encoding="UTF-8"?>
<svg width="400px" height="400px" viewBox="0 0 400 400" version="1.1" xmlns="http://www.w3.org/2000/svg" xmlns:xlink="http://www.w3.org/1999/xlink">
    <!-- Generator: Sketch 53.2 (72643) - https://sketchapp.com -->
    <title>BFFs_DL</title>
    <desc>Created with Sketch.</desc>
    <g id="BFFs_DL" stroke="none" stroke-width="1" fill="none" fill-rule="evenodd" stroke-linecap="round" stroke-linejoin="round">
        <g id="BFFs" transform="translate(110.000000, 102.500000)" stroke="#000000" stroke-width="16">
            <path d="M53.0667511,9.35426633 C57.0042264,9.97566556 60.8799091,10.8933802 64.597518,12.3505038 C66.4326114,13.2063662 68.1412457,14.2003173 69.7809024,15.382702 C71.3831961,16.7420128 72.824542,18.2336587 74.1667324,19.8547627 C75.6914263,21.9850689 76.9675132,24.2246953 78.0524744,26.6110409 C79.7496125,30.8817223 80.9682179,35.3250145 81.6996686,39.8618043 C82.0373718,42.8954408 82.1106606,45.9305158 81.8146314,48.9684676 C81.4884245,50.9664388 81.0084549,52.8852966 80.3014338,54.7854549 C79.5599239,56.3590909 78.7106363,57.8406678 77.7147713,59.2647077 C76.0981072,61.1878808 74.2989396,62.9139898 72.3531946,64.4976948 C68.9028741,66.9904839 65.2140059,69.018662 61.3282639,70.7447709 C56.7053231,72.5960228 51.8998789,73.9538952 46.983783,74.7320827 C44.3439502,75.0255212 41.7630358,75.0945656 39.1131437,74.8557872 C36.6543772,74.441521 34.2789588,73.7884765 31.9480884,72.9067224 C30.4938092,72.2292247 29.1085077,71.4582293 27.7950579,70.5419531 C26.7963188,69.6673912 25.8794906,68.7396077 25.027329,67.7283955 C23.9624863,66.1605132 23.0801469,64.5149559 22.2869037,62.7946006 C20.9030393,59.231624 20.0135147,55.5089823 19.4113972,51.7388725 C18.8696351,47.0769399 18.8610129,42.4221993 19.3970268,37.7602666 C20.1658404,32.9602452 21.4836013,28.1774849 23.2310356,23.6378182 C23.8259679,22.3676897 24.4841299,21.1622902 25.274499,20.0101125 C26.5218451,18.5831957 27.8582875,17.2799834 29.3111296,16.074584 C32.6134355,13.7227605 36.2951185,11.8413017 39.9480609,10.1008085 C40.3432454,9.9123749 40.7111263,9.64338958 41.0445184,9.322621 C45.0624676,8.87958635 49.0473649,8.89540902 53.0667511,9.35426633" id="Path"></path>
            <path d="M146.476086,5.32308903 C148.225755,4.68883547 149.982135,4.07778631 151.738514,3.4682841 C154.979512,2.33436249 158.394974,1.64441838 161.820501,1.15712601 C163.702696,0.985413459 165.541274,0.920441143 167.421791,1.05193273 C168.695041,1.28242976 169.921319,1.59182174 171.140887,1.9909374 C172.023271,2.41944529 172.851973,2.88817414 173.6639,3.40795267 C174.274523,3.91844944 174.838175,4.43977492 175.381696,5.00441529 C176.493902,6.48330896 177.421579,8.04264454 178.243572,9.6762342 C179.36752,12.4669499 180.144219,15.3365605 180.67432,18.2695965 C181.092027,21.8028529 181.108802,25.309811 180.719614,28.8477083 C180.046922,32.6563236 178.907876,36.3117898 177.362866,39.9007368 C175.272657,44.2198489 172.736223,48.3657014 169.691497,52.1789576 C167.866338,54.2642595 165.908655,56.1438158 163.684243,57.8686761 C161.590679,59.2671278 159.408205,60.4412704 157.059656,61.4529822 C154.02835,62.5374011 150.950072,63.3232567 147.73927,63.8182839 C145.335362,64.0379522 142.961649,64.0627035 140.552709,63.8693335 C138.984213,63.5986156 137.479464,63.2196104 135.988135,62.7091136 C134.818893,62.1645837 133.723463,61.5566285 132.658228,60.8682313 C131.420207,59.8828179 130.296258,58.8308851 129.242766,57.6784 C127.744727,55.7168549 126.493285,53.6717739 125.404565,51.4859195 C123.935044,48.0655912 122.874842,44.5369756 122.244089,40.9031668 C121.881741,37.4147722 121.930389,33.9867091 122.339708,30.5091432 C123.26403,24.9168832 124.804007,19.4375512 127.083778,14.1809814 C128.665694,10.9385535 130.50595,7.85700935 132.735394,4.96419433 C134.370991,3.14496948 136.174342,1.51447375 138.143768,0 L138.143768,0 C138.178996,0.360441658 138.246098,0.717789395 138.350105,1.06894929" id="Path"></path>
            <path d="M30.6884951,173 C30.3158794,172.207608 29.912469,171.445928 29.7800519,170.576753 C29.6122209,169.454197 29.455168,168.333177 29.3412277,167.206014 C29.258082,166.419764 29.1795556,165.639657 29.1010291,164.853407 C28.9624531,163.552717 28.8300359,162.25049 28.6806817,160.948264 C28.3819733,158.325384 28.0570894,155.711717 27.7229671,153.09498 C27.7214273,153.085766 27.7198876,153.075016 27.7183479,153.067338 C26.6590108,146.216829 25.4564784,139.40164 24.1446249,132.598736 C23.471761,129.114359 22.8035164,125.63459 22.1368115,122.150213 C21.6194608,119.45055 21.0235837,116.750888 20.6448091,114.02819 C20.0550909,109.799026 19.1050749,105.035458 21.8950732,101.334555 C23.2669764,99.505603 24.8421244,97.9699588 26.9531,97.0101812 C28.1202185,96.475777 29.3119727,96.0381184 30.5452998,95.7018123 C31.9526168,95.3240438 33.3599338,94.9462753 34.7610919,94.5439366 C37.8590371,93.6563342 40.9431246,92.7503041 44.0595466,91.9164493 C45.8545975,91.4318162 62.9761106,86.2994804 79.9995935,83.8819189 C97.7146716,81.3661416 123.085697,81.3054123 125,81" id="Path"></path>
            <path d="M121,136 C121.144201,133.047648 121.49243,130.099953 121.77623,127.163123 C122.219571,122.608864 122.669048,118.056158 122.981994,113.49569 C123.334826,108.373313 123.574138,103.255592 123.784303,98.1192449 C124.019013,92.4318541 124.0635,86.6947917 124.717006,81.0353411 C124.773766,80.6876403 124.833594,80.3414918 124.899558,80 C126.194298,80.0450148 127.484435,80.2048951 128.771504,80.3740888 C134.913845,81.2774898 143.819838,79.9565374 149.934567,81.0353411 C156.969726,82.2848907 165.084497,81.5662056 172,83.3667988" id="Path"></path>
            <path d="M175,86 C174.898535,86.640009 174.805123,87.2800181 174.703658,87.9200271 C172.627655,101.326207 169.551499,114.574704 165.82629,127.643874 C163.983818,134.104255 162.001227,140.535264 160.347189,147.038931 C159.578955,150.047282 159.007209,153.095828 158.346882,156.121185 C157.981287,157.789228 157.604418,159.455725 157.201779,161.109854 C157.031061,161.816338 156.842626,162.522821 156.654191,163.223121 C156.515684,163.742548 156.35785,164.220236 156.151699,164.714929 C155.848915,165.753785 155.307769,166.653508 154.515377,167.414098 C154.344658,167.607337 154.169108,167.806761 154,168" id="Path"></path>
            <path d="M87,173 C86.8591137,171.494843 86.7975999,169.98815 86.7281489,168.482993 C86.5733724,165.134787 86.4562978,161.792724 86.3094585,158.446054 C86.0455447,152.224227 85.6963053,145.977825 85.1069639,139.768285 C83.751677,125.363319 85.5735615,103.392679 84,89" id="Path"></path>
            <path d="M116.623027,160 C117.122651,159.161356 117.728208,158.155596 117.968534,157.23876 C118.240481,156.196204 118.363806,155.149049 118.463415,154.083496 C118.438117,153.79526 118.414401,153.513156 118.382779,153.232586 C118.327441,152.393942 118.178819,151.573696 117.957466,150.770315 C117.598559,149.327601 116.833312,147.926284 115.919442,146.76414 C115.283844,145.95156 114.724139,145.310695 114,144.686695 C114.311475,144.444454 114.621368,144.202213 114.931262,143.955372 C117.666546,141.775204 120.365465,139.572038 123.039087,137.325944 C125.658951,135.127377 128.111221,132.786226 130.599855,130.455807 C131.543765,129.575768 132.563568,128.730991 133.447396,127.79729 C134.546253,126.622882 135.64511,125.456139 136.743967,124.287863 C141.797128,118.9279 146.799694,113.537273 151.789611,108.129781 C153.555688,106.213318 155.249034,104.200265 157.14476,102.40339 C160.313263,99.4152405 163.481766,96.4332242 166.650268,93.4450752 C169.366579,90.8754817 172.146134,88.4316082 175,86" id="Path"></path>
            <path d="M19,104 C17.6059207,110.746025 16.1589209,117.496708 14.9553557,124.284663 C13.8092472,130.757368 12.6631386,137.236285 11.5170301,143.70899 C10.5190992,149.350866 9.45010345,154.980318 8.39320388,160.60977 C7.91389464,163.162824 7.44819354,165.71743 6.98098042,168.276696 C6.667993,170.019108 6.86757918,187.294149 6.53493554,189.684143 C6.51074328,189.949698 6.47294286,190.212147 6.42758237,190.473043 C6.40943817,190.612808 6.39129397,190.752574 6.37314977,190.890787 C6.37314977,190.89234 6.37163775,190.89234 6.37163775,190.89234 C6.38978195,190.761892 6.40490212,190.631444 6.42304632,190.500996 C6.39734203,190.639209 6.37012574,190.777421 6.33988541,190.915634 C4.14594939,192.502751 1.86734044,194.019986 0,196" id="Path"></path>
        </g>
    </g>
</svg>