<svg height="1000" viewBox="0 0 800 1000" width="800" xmlns="http://www.w3.org/2000/svg"><g fill="none" fill-rule="evenodd"><g fill="#000" transform="translate(306 327)"><path d="m121.004722 91.7079532c-.252945.2002498-.50589.4004996-.758834.6007494.252944-.2002498.505889-.4004996.758834-.6007494m19.156547-45.9541015c.057633.1324233.115266.2680764.172899.4004996-.057633-.1324232-.115266-.2680763-.172899-.4004996m-30.638309-25.6384353c3.419554.5716809 6.730246 1.3791398 9.986507 2.5967878 2.158033 1.0432369 4.184791 2.2027479 6.141109 3.5883474 1.786621 1.4728051 3.538022 3.0037472 5.151745 4.6638827 1.335163 1.3791398 2.55506 2.848715 3.765351 4.3441289 2.02996 2.8842433 3.592453 5.9105993 5.014066 9.1081365 1.514465 3.9339399 3.086564 7.8775692 3.896626 12.0311378.022413.2874554.041624.5781406.057633.8720556-.544311 2.2511955-1.437621 4.4507135-2.154831 6.6373123-.589137 1.8119378-1.210292 3.6077264-1.879474 5.3938255-1.706575 3.6981618-3.707719 7.1540859-6.05466 10.4905062-3.480389 4.0986614-7.377016 7.7645248-11.542596 11.1429329-4.248828 2.8584046-8.705775 5.148358-13.345227 7.2574407-3.323499 1.2370271-6.61498 2.2738043-10.0889652 2.9036223-4.175186.339133-8.4464268.264846-12.6280165-.161492-1.2070898-.242238-2.369354-.549072-3.5220127-.943112-.9893654-.5232332-1.9307033-1.0949141-2.8560321-1.7215022-2.0523729-1.789329-3.874214-3.7950569-5.5839911-5.9138291-1.2711264-1.8054781-2.3757576-3.6432546-3.3299029-5.6134543-.8484849-2.4869735-1.4632362-5.0159348-1.9050887-7.606263-.3265866-3.7627585-.2785592-7.4738397.0800458-11.2236788.9349343-5.8007848 2.5838766-11.4045497 4.3929104-16.998625.6275586-1.9314417 1.4408234-3.7982867 2.1516296-5.6909704.2849628-.7396324.5347055-1.4921841.8004574-2.241506.0224128-.038758.0416238-.077516.0608348-.1130442.9445397-1.0916844 1.6585478-2.3545502 2.0779875-3.8919519.6179531-2.2285866.4546598-4.638044-.4290452-6.7665057 2.5998857.1065846 5.2349916-.8171484 7.1720986-2.7841183 1.6329331-1.6504461 3.2626645-3.2395252 5.0172672-4.7284794 1.8090338-1.2047287 3.6244712-2.2931833 5.5615782-3.2492147 1.6425387-.5846002 3.2818755-1.0367772 4.9852489-1.3629906 3.022527-.235778 5.987422-.2131692 9.006747-.019379m-17.6676964-18.0677006c-7.540309 2.38684854-14.0080051 7.231602-19.5119504 12.8062983l-.9381361.9463419c-2.6735279 2.7033724-3.4163524 6.7083686-2.2156662 10.1287645-2.1164095-.1711813-4.0887366.4037295-6.0866783 1.3791398-4.0279019 1.9282119-5.8561466 6.7988041-7.1688968 10.7715019-1.1750715 3.5463595-2.5742711 7.0022837-3.6500859 10.6003206-2.3149229 7.683779-3.9158378 15.4289248-4.2424244 23.4905946-.2753574 6.524268.8388794 13.2746245 2.840023 19.4565299 2.3277302 7.2154528 6.9671815 13.3101527 12.1189255 18.7201277 4.5786165 4.796306 10.4955979 8.265149 16.9344775 9.702426 3.4643798.78485 7.1560894.910814 10.7069186.946342 5.6288167.051677 11.1551749-.40373 16.6463129-1.77641 4.053516-.998019 7.97896-2.877783 11.769926-4.605745 4.466553-2.031567 8.692968-4.415186 12.733677-7.218683 4.789937-3.317041 9.141224-7.5190575 13.143511-11.7566018 3.800572-4.0243752 7.127273-8.7690038 9.666324-13.7009628 2.375758-4.6315843 4.114351-9.5021765 5.865752-14.385688 1.27753-3.5431297 2.638308-7.0378118 2.526244-10.9103848-.099257-3.2427549-.662779-6.5113486-1.549686-9.6410593-1.54008-5.4487328-3.653288-10.926534-6.153917-15.997376-1.988336-4.0502139-4.69068-7.544896-7.492281-11.0524975-1.588108-1.9798893-3.339509-3.7853674-5.215781-5.4874908-3.749343-3.3945573-7.738822-6.47259062-12.240595-8.76900376-3.016124-1.53740177-6.256375-2.68722326-9.480618-3.65940379-3.153802-.94634184-6.442081-1.28547458-9.69514-1.68920404-1.841052-.22931833-3.733334-.34559241-5.632019-.34559241-4.652258 0-9.3717554.68795499-13.6782164 2.0477158"/><path d="m69.1823653 86.9989267c-1.7742889 1.8038416-2.7499868 3.9056534-3.6741627 6.1292166-.3767546.7913834-.7792702 1.553931-1.2655091 2.2844388-.8662136 1.0637219-1.7388675 2.1242397-2.5696598 3.2264094-1.2075469 1.5891745-1.9191945 3.7550665-2.6598233 5.5396835-.3831949.906727-.7663898 1.813454-1.1399243 2.720181.3542138-.813812.7052074-1.640439 1.0562011-2.467066-.8984149 2.10822-1.7131066 4.242072-2.5535592 6.366311-1.107723 2.229971-2.5696598 4.251684-3.6323011 6.500879-1.7742889 3.703802-3.4358734 7.4845-4.9074705 11.313258-1.2944903 3.367385-2.4022133 6.795645-3.5582382 10.214293-1.107723 3.264858-2.1639241 6.571366-2.8433704 9.961179-.2028679 1.025274-.4797987 2.066568-.4282767 3.104658.0128805 1.813453.4669182 3.517972 1.3846538 5.081515 1.1431444 1.938408 1.9224147 2.32609 3.6838231 3.652539 2.1510435 1.614806 5.4226905 1.592378 7.9118472 1.015662 1.1463645-.262727 2.241207-.865075 3.2974081-1.326449 2.5664396-1.140617 4.9911938-2.716976 7.4578096-4.069056 7.6832183-4.210032 15.2988141-8.561039 23.3169255-12.123866 2.7982886-1.089354 5.6577597-1.999285 8.5590923-2.819504 5.2810053-1.464219 8.4882493-7.032739 7.0295333-12.316105-1.445836-5.241714-7.1068163-8.471327-12.3910415-6.994291-7.8893063 2.197931-15.3535562 5.52046-22.6020577 9.275526.3284528-.720896.6633458-1.438588 1.004679-2.153076 1.0336602-2.153075 2.3281504-4.081872 3.5485778-6.135624 1.6358236-2.732996 2.7242258-5.735127 3.8931312-8.676382.463698-1.07013.927396-2.137056 1.3814337-3.207185-.2350692.560696-.4701383 1.121393-.7084275 1.672478.4604778-1.05411.9177356-2.10822 1.5166788-3.085434 1.2011067-1.396936 2.3861127-2.813096 3.3392697-4.373435.8372325-1.371304 1.4490563-2.86436 2.0544398-4.354211.206088-.422925.4411571-.833035.7116476-1.204697-.0354213.0512637-.0740628.0993235-.1127043.1473832 2.4955969-4.0466286 2.2251064-9.3364021-1.3588928-12.8992295-1.9996977-1.9928765-4.7046027-2.9989267-7.4062876-2.9989267-2.6791441 0-5.355068.9932343-7.3354449 2.9989267"/><path d="m170.30044 168.486162c.567823.457334 1.135647.911425 1.713094 1.359029-.564615-.441117-1.122814-.882234-1.68743-1.32335-.009624-.012974-.01604-.025948-.025664-.035679m-42.836985-49.103428c-2.543978.697353-4.747902 2.419655-6.07924 4.712813-1.37625 2.380733-1.741967 5.270696-1.026573 7.930371.763514 2.812119 2.45736 4.446846 4.674117 6.146442 2.142972 1.621753 4.362937 3.142957 6.631023 4.573343 2.742876 1.74825 5.739187 3.039165 8.645673 4.472794 5.62049 2.786171 11.093409 5.906423 16.207028 9.558611 2.880822 2.400194 5.694275 4.881475 8.539808 7.323835-1.796503 1.485525-3.541678 3.032677-5.296477 4.566855-4.087046 3.600291-7.843663 7.576829-11.654817 11.478766-3.83361 3.940859-7.721757 7.816848-11.706145 11.605262-1.729135 1.634727-3.45827 3.282428-5.148908 4.956077-.628776.625996-1.225472 1.248749-1.870288 1.839067-2.322623 1.699597-4.478427 3.363515-6.12736 5.899937-1.074694 1.660674-1.552693 4.005729-1.578357 5.942101-.048121 3.029435 1.328129 5.575586 3.233706 7.794144.75389.882233 1.703471 1.595805 2.656259 2.286671.166818.155689.32722.31462.484414.476796.500455.762223 1.020158 1.530934 1.658558 2.049895 2.181469 1.787171 4.247448 3.003486 7.157142 3.003486 2.669091 0 5.261189-1.089818 7.144309-3.003486 1.892745-1.900694 2.967439-4.521447 2.967439-7.220043 0-1.933129-.529327-3.545151-1.405122-5.043651.012832-.012974.025664-.022705.041704-.038922 3.570551-3.444603 7.304712-6.72703 10.801478-10.249477 7.416993-7.489254 14.644712-15.127709 22.735394-21.890418 2.062771-1.436873 4.468802-2.802389 5.986206-4.729031 1.004117-1.281185 1.741967-2.218558 2.406032-3.584074 1.453243-2.967807 1.879912-6.03292 1.013741-9.276425-1.389082-5.183122-6.015079-8.601776-9.723575-12.098275-2.845534-2.675892-5.812973-5.183122-8.822116-7.654673-4.010053-3.292158-8.295997-5.942102-12.806504-8.423383-3.820778-2.105036-7.718549-3.992756-11.654816-5.880476-3.647544-1.748249-7.032028-4.041408-10.252903-6.499985-1.305673-.989269-3.156713-1.407681-4.943592-1.407681-1.023366 0-2.024275.139471-2.887238.382734"/><path d="m75.2718203 235.440501c.3397829.048373.6827713.093521 1.0257597.141894-.3429884-.048373-.6827713-.093521-1.0257597-.141894m36.9497877-115.918072c-3.503611.325713-6.923878.957788-10.392228 1.53504-.926389.151569-1.8399565.341837-2.7663457.541779-.4519754.099971-.9263892.190267-1.3783646.316037-2.3143703.628851-3.481172 1.54794-5.2954844 3.008807-2.5419608 2.028446-3.5677205 5.304917-3.7953109 8.41692-.057699.770744.0096165 1.486666.1538639 2.176789-.1730969.615951-.3718379 1.228677-.5801953 1.841403-.9392112 2.847563-2.0643414 5.643528-3.0420186 8.491091-2.4297683 6.991526-5.4461429 13.754085-7.9496377 20.723036-2.3688638 6.588416-4.1318883 13.363875-6.6257665 19.926492-2.1829449 5.775748-3.5677205 11.832061-5.7474599 17.598134-1.2886106 2.857238-2.7342907 5.7177-3.6670909 8.681359-.5385238 1.699508-.9904992 3.363543-1.6668595 5.011453-.2884949.719147-.5866063 1.438294-.8622792 2.167115-.4135094 1.057758-.5257019 2.518626-.5898119 3.489313-.1730969 2.431554 1.0161432 6.236905 3.0933066 7.849342 1.8143125 1.409269 3.1670331 2.544425 5.4204989 3.160375 1.9425325.541779 3.9587914.706248 5.9494063.883616 1.779052.170918 3.558104.283789 5.3371559.448257 3.481172.474056 6.962344.941663 10.4403105 1.38992 5.9718447.961013 11.777004 2.628272 17.793725 3.324845 2.141274.25154 4.282547.454707 6.433437.493405 1.541845.022575 3.045224-.077396 4.571042-.403109 1.942532-.428908 3.958791-1.564063 5.372416-2.986232 1.654037-1.676934 2.352836-3.515112 3.205499-5.669328.474414-1.802704.474414-3.602183 0-5.404887-.702004-2.544425-2.391302-4.747014-4.644768-6.082111-2.987525-1.760781-6.673849-1.757556-9.658169-.287014-1.429652-.070947-2.859305-.209617-4.269725-.361186-2.330397-.367635-4.625535-.851366-6.920672-1.406045-3.46835-.832017-6.962344-1.347997-10.5076259-1.776905-2.5002893-.296688-5.0005786-.609501-7.4912513-.925539 1.1796236-2.53475 2.3336033-5.0824 3.2471705-7.730021 1.2918161-3.766652 2.3432198-7.607476 3.545282-11.412827 1.3014326-4.156861 3.1029231-8.162154 4.4075612-12.331915 1.3623371-4.343904 2.6413312-8.716833 4.1799708-12.999464 1.503379-4.195561 3.2183207-8.313724 4.8851807-12.444787 1.641215-4.06979 2.968292-8.25245 4.49411-12.370614.801374-2.141315 1.641215-4.282631 2.128451-6.527143.016027-.061273.028849-.12577.041671-.190268.887924-.203167 1.772641-.409559 2.670181-.577252 4.84992-.499855 9.693429-.683673 14.568993-.580477 5.282663.099971 9.690224-4.521273 9.690224-9.748792 0-5.391988-4.407561-9.639147-9.690224-9.752017-.929594-.019349-1.855984-.029024-2.782373-.029024-3.772872 0-7.532923.167693-11.305795.522429"/><path d="m119.901824 123.066771c-1.832031 1.821909-3.295701 4.762249-3.080551 7.407582.495496 6.130301-.62263 12.143895-1.170284 18.222327-.459638 5.33281-.932315 10.662379-1.160504 16.008157-.21515 5.063738-.355323 10.130719-.62263 15.194457-.21189 4.019869-.717165 8.033255-1.242 12.02719-.61611 3.121882-1.215921 6.211346-2.017843 9.297568-1.108346 4.318118-2.558976 8.535739-3.413055 12.928419-.942095 4.888679-1.082268 9.90379-1.183323 14.88-.026079 1.215686-.01304 2.431372.088016 3.647058.114094 1.189752.179291 2.418406.508535 3.572497.498756 1.786249 1.401732 3.32936 2.712189 4.635817.726945.56732 1.45389 1.124915 2.190615 1.68251 1.642961.949856 3.413055 1.419922 5.323323 1.429647 1.897229-.009725 3.667323-.479791 5.310284-1.429647 1.590803-.936889 2.852363-2.191477 3.781418-3.760523.955134-1.633882 1.437591-3.407163 1.437591-5.293908.061937-.661334-.039119-1.582014-.244489-2.428131-.179291-3.647059.078237-7.410824.414-11.028706.785623-4.217621 2.131938-8.227765 3.207686-12.390275.876898-3.416888 1.577764-6.811085 2.252551-10.270117.674788-3.468758 1.04315-7.141752 1.362615-10.672105.368362-3.938823.648708-7.851712.854078-11.803503.342284-6.509595.482457-12.993255.929056-19.50285.241228-3.569255.62263-7.128784.990992-10.688313.511795-4.759007 1.147465-9.446693.739984-14.257569-.228189-2.862536-.981213-5.319843-3.080551-7.407582-1.962426-1.951581-4.661576-3.066771-7.438962-3.066771-2.787165 0-5.486315 1.11519-7.448741 3.066771"/><path d="m14.344 344.26125c-.0502857.039-.1005714.078-.1477143.117-.0848571.039-.1728571.078-.2545714.1105.1351428-.0715.2702857-.1495.4022857-.2275m17.1262695-23.888565c-6.994314 1.064816-13.813379 2.934898-20.7231979 4.392365h-.0093884c-2.5911821.156395-3.43300334.495804-5.74566466 1.600551-2.94480962 1.390915-5.27937707 5.859813-4.96330293 9.160741.01251779 1.900031.4662876 3.666959 1.35818 5.304113 1.19857819 2.196182 3.4830745 4.342451 5.90526647 4.821618 2.63812381.535735 3.25149542.392651 5.90213702-.023293.7604556-.119792 1.505264-.299479 2.2500724-.469184 2.0779528-.482495 4.1559056-.948352 6.2338584-1.430846 5.0008563-1.18128 9.9891948-2.286026 15.0620283-3.068 2.3846386-.362703 4.75363-2.72859 5.9052665-4.834928 1.3425328-2.429111 1.7086781-5.393957 1.001423-8.095926-.6853488-2.638746-2.3345674-4.91479-4.5470864-6.292395-.7823618-.349393-1.5772413-.715423-2.3596031-1.064816-.8793746-.246238-1.7587492-.372685-2.6349943-.372685-.8762452 0-1.7556198.126447-2.6349944.372685"/><path d="m110.937133 233.967281c-2.035614 2.015571-2.757302 4.380423-2.996786 7.136213-.398061 4.77777-.834958 9.549132-1.38836 14.301267-.423951 2.207836-1.000007 4.37081-1.478975 6.562624-.317155 1.458005-.530749 2.941646-.721688 4.42849-.207122 1.345851-.440133 2.678884-.317155 4.034348.177995 1.852147.430424 3.691476.644018 5.530806.530748 4.482965.974117 8.98836 1.365706 13.480938.404533 4.569484.695798 9.12615.912628 13.708452.126214 2.739767.226539 5.582076.870556 8.248142.333336 1.342647.744342 2.614796.993535 3.963851.210358 1.586181.43366 3.172363.656963 4.75534.126215 1.07668.226539 2.166178.326863 3.255677-.747578.467843-1.49192 1.015797-2.304224 1.707948-3.388374 2.877558-3.718474 8.39875-1.569591 12.029343 2.288043 3.867718 6.964453 5.69423 11.314 4.553462 1.042079-.278784 2.006487-.75624 2.974132-1.233697.822012-.281988 1.653734-.528727 2.488691-.791488 1.818784-.589611 3.802618-1.416348 5.132724-2.855127.618128-.663312 1.174766-1.377895 1.679625-2.140543 1.174765-1.941871 1.200656-2.967281 1.453085-5.168708.122978-1.067068-.197413-2.18861-.456314-3.287721-.297737-3.18518-.614892-6.360747-1.022662-9.526701-.168286-1.390713-.26861-2.794243-.440132-4.184955-.21683-1.589386-.38188-3.191589-.773469-4.742522-.16505-.692152-.388352-1.342646-.566347-2.012367-.482204-5.495557-.634309-11.026363-1.139167-16.528329-.57282-6.213345-1.307453-12.407463-2.135938-18.588763.032362.240331.067961.477457.100324.714583-.087379-.679335-.181231-1.358669-.275083-2.034798v-.102542c.579293-2.826286 1.485448-5.572463 1.993542-8.414771 1.152113-6.456879 1.543701-13.128454 2.10034-19.662239.213593-2.553912-1.226547-5.383403-2.996786-7.136213-1.896454-1.8906-4.511361-2.967281-7.207173-2.967281-2.702286 0-5.307483 1.076681-7.216882 2.967281"/><path d="m67 93.9039815c0 2.6178492 1.0290811 5.1518758 2.8522061 6.9895285 1.9247628 1.950491 4.2306666 2.70812 6.8859499 2.895109 2.2455565.164422 4.5038177.315948 6.7493742.116063 1.7246636 0 3.3254564-.441682 4.815083-1.325045 2.1343903-1.257341 3.7224784-3.3625821 4.3799468-5.7805464 1.0671952-3.9525655-.5971211-9.0044987-4.3799468-10.9034066-2.4329509-1.221878-4.7388548-1.6893511-7.4576615-1.6506636-1.3625796.0128958-2.74104-.1257342-4.1067957-.2256767-.1778659-.0128958-.3557318-.0193437-.5335976-.0193437-5.0691771 0-9.2045584 4.9745584-9.2045584 9.9039815"/><path d="m67.8520889 217.399684c-2.0428678.754241-3.6739948 1.750227-5.1214221 3.374748-.5954405.667214-1.1623759 1.347321-1.7578165 2.027428-1.6944717 1.962962-2.7713323 4.12899-2.7713323 6.810738 0 1.298972.2628807 2.578605.7506352 3.761539-.7696386 2.788116-1.6216253 5.556892-2.4451069 8.325669-1.6818028 5.602018-3.9590462 11.055766-5.8530539 16.583649-1.8781714 5.489204-3.3762745 11.078328-4.959893 16.657783-1.5709495 5.582679-3.4997968 11.010641-5.5870059 16.403147-2.4419397 5.705162-4.9028828 11.407101-7.2466381 17.163835-.8583212 2.037097-1.7166424 4.070971-2.606636 6.091952-1.0388537 2.369093-2.2519054 4.7124-2.8695166 7.242655-.066512.270753-.1266895.551177-.186867.844493-3.0627181 1.611628-5.1974358 4.738185-5.1974358 8.560966 0 5.137869 4.3549508 9.972752 9.5777245 9.743901 2.2645744-.112814 4.478473-.364228 6.7430474-.715563 2.4007656-.367451 5.4191423-2.607613 6.3724807-4.847776.7031266-1.676092 1.5076047-3.123334 1.2732292-5.063734-.0696792-.602749-.1235222-1.073344-.1805325-1.50526-.0285051-.686553-.0190034-1.382777.0285051-2.075776.1076861-.431917.2375428-.854163.3832357-1.273186 1.9953593-4.638265 4.0382271-9.25719 5.9417365-13.93091-.3103893.780028-.6302802 1.547163-.9533383 2.32719 2.9962061-7.174966 6.457996-14.214556 9.0329597-21.553908 2.5116188-7.152404 4.6146642-14.378942 6.6195251-21.682839 2.0397006-7.403818 4.9345552-14.578784 7.4208361-21.831109 1.0895295-3.136227 2.0301989-6.333696 2.8980218-9.531166.494089-1.863041 1.0008469-3.726083 1.4822669-5.592348.7569696-2.933162 2.0555368-6.607673.9026625-9.566622-.950171-2.443227-2.0523695-4.40619-4.3644524-5.779296-1.3904171-.828377-3.2052438-1.369884-4.9440569-1.369884-.8298161 0-1.643796.125707-2.3817622.399684"/></g><g fill-rule="nonzero" transform="translate(441 750)"><g fill="#000"><path d="m110.812545 8.25651402c.092027.30696677-.002399.56223147-.238799.83714039-.02565.02982796-.049139.05586386-.091582.10173562-.071868.07767354-.093758.10430138-.087589.09160971-.236087.48553798-.445289 1.10937576-.613635 1.82229836-.456978 1.9357483.460479 3.5584025 2.356069 4.107952 2.057667.5966407 4.471365-.5302113 5.363664-2.4748135 1.056298-2.3011775.860556-3.86566618-.668435-5.06526292-1.8713-1.46815094-4.474387-1.4070442-5.760022.16268531l-.276725.33787471c-.000544.02278019.008565.0504703.017054.07878032zm-.706462-1.98706448c.317506-.38281247.849338-.76977021 1.313882-.96096372.959615-.39489591 2.260405-.40230625 3.713733-.07007925 2.799219.64000676 4.974879 2.98223835 4.862109 5.41864683-.235276 5.0929391-6.569713 8.3675789-10.263659 4.9193211-1.788404-1.6695244-2.17838-3.7741876-1.232787-6.2913591.124869-.33144673.35175-.79491209.55045-1.09976546.220248-.33791187.431275-.54378808.700966-.62962626.027825-.00885653.055317-.01626188.082454-.02225736-.185604-.36371257-.085327-.83206396.272852-1.26391678z"/><path d="m116 2.36382675c.035222-.12972149.077249-.32430373.14169-.51286065.138488-.40865814.236951-.81660741.235349-1.25007567-.0004-.19032907-.120076-.49088597.246957-.55964545.3142-.05883543.648412-.09144302.888965.16587338.14209.15134174.28378.31118981.376639.4876961.326608.62273404-.112871 1.84091099-.775292 2.19605015-.501919.2690126-1.1015.02091139-1.114308-.52703786"/><path d="m113.597281 1.30015424c-.04964.30525146-.112598.60979877-.145288.91681062-.042779.40031247-.383399.57670345-.727651.72105535-.297437.1253397-.577924.07288011-.650568-.27109991-.165467-.78302105-.014125-1.5628734.080312-2.33744458.043183-.35735898.619896-.43587233 1.012981-.17709514.345866.22814642.452007.52389178.430214 1.14777366"/><path d="m112.19066 11.6823452c-1.557746.93835-3.598952 2.2859125-5.139166 3.241425-.447575.2777931-.791402.4148503-1.203913.7245737-.394464.296153-.844941.4923677-1.174434.2261493-.338775-.2738019-.704759-.4006878-.419611-.8712597.253695-.4190845.551396-.45064 1.090239-.6613796 1.064279-.4162906 2.688401-1.5373986 3.633052-2.1065552.290305-.1752172.803755-.5440491 1.054872-.7511965.658986-.5440115.514386-.6984828-.228134-1.2205423-1.308693-.92078836-2.925515-1.95004003-4.24452-2.86204759-.337744-.23309077-.685285-.45859809-1.004981-.70565833-.872461-.67332898-.717035-1.39934286.483889-1.6731447.276382-.06306223.481091.00678517.626501.18998494 1.210721 1.52746296 3.394764 2.72040944 5.105654 3.84634958.58422.38436032 1.033324.79900205 1.854222.9702279.442934.0921986.32279.4677781.369713.910012.063424.2821835-.391387.4948039-.803383.7430615z" transform="matrix(.99939083 -.0348995 .0348995 .99939083 -.300349 3.792992)"/></g><path d="m4.80555555 7.71270718h-2.01851852v5.18784532h-.76851851v-5.18784532h-2.01851852v-.61325967h4.80555555zm5.17102396 2.52762432h-3.11111111v2.660221h-.76851851v-5.80110499h.76851851v2.52762431h3.11111111v-2.52762431h.76851849v5.80110499h-.76851849zm2.68028319-3.14088399h3.5277778v.61325967h-2.7592592v1.89779006h2.5277777v.61325966h-2.5277777v2.0635359h2.8055555v.6132597h-3.5740741zm8.1105664 0c.1172846-.01657467.2484561-.02900548.3935186-.03729281.1450625-.00828734.2962955-.01381216.4537037-.01657459s.3117276-.00552486.4629629-.00828729c.1512354-.00276243.2916662-.00414365.4212963-.00414365.5185211 0 .9675905.07182247 1.3472222.21546961.3796317.14364715.6929002.34392137.9398148.60082873.2469147.25690737.4305551.56491534.550926.92403315.1203709.35911782.1805555.75414149.1805555 1.18508288 0 .39226716-.0570982.76933526-.1712963 1.13121546-.114198.3618803-.294752.6823191-.5416666.961326s-.5678992.5027616-.962963.6712707-.8734537.2527624-1.4351852.2527624c-.0987659 0-.226851-.0013812-.3842592-.0041436-.1574082-.0027625-.3194436-.0082873-.4861111-.0165746s-.320987-.0151933-.462963-.0207182c-.141976-.005525-.2438269-.0138122-.3055556-.0248619zm1.75.54696133h-.2638889c-.0956794 0-.1898143.00276238-.2824074.00828729-.092593.00552491-.1774687.01104968-.2546296.01657459-.0771608.00552491-.1373454.01104968-.1805555.01657458v4.640884c.0308643.0055249.0895057.0096685.1759259.0124309.0864202.0027625.1759254.0055249.2685185.0082873.092593.0027624.1820983.0055249.2685185.0082873.0864203.0027624.1450617.0041437.1759259.0041437.4321009 0 .7947516-.0662977 1.087963-.1988951.2932114-.1325973.5277767-.3107724.7037037-.5345304s.3009254-.4806615.375-.7707182.1111111-.5897774.1111111-.89917126c0-.27071957-.0339501-.5428163-.1018518-.81629835-.0679018-.27348204-.1851842-.52071712-.3518519-.7417127s-.3904305-.40193301-.6712963-.54281768c-.2808657-.14088467-.6342572-.21132597-1.0601852-.21132597zm4.3747279 2.35359116c0-.96685566.2283925-1.70856096.6851852-2.22513812.4567922-.51657717 1.10802-.77486188 1.9537037-.77486188.4567922 0 .8518498.07182247 1.1851852.21546961.3333348.14364715.6095668.34668375.8287037.60911603.2191368.26243227.3811723.57734622.4861111.94475138.1049388.36740515.1574074.77762205.1574074 1.23066298 0 .9668557-.2299362 1.708561-.6898148 2.2251381-.4598791.5165772-1.1157366.7748619-1.9675926.7748619-.4506199 0-.8410478-.0718225-1.1712963-.2154696-.330249-.1436472-.6049372-.3466838-.8240741-.609116-.2191368-.2624323-.3811723-.5773463-.4861111-.9447514-.1049388-.3674052-.1574074-.7776221-.1574074-1.230663zm.8148148 0c0 .3204436.0354933.624308.1064815.9116022.0709877.2872943.1805545.5400542.3287037.7582873.1481487.2182332.3379614.3922646.5694444.5220995.2314826.1298348.5046281.1947513.8194445.1947513.5740766 0 1.0246893-.1947494 1.3518518-.5842541.3271621-.3895047.4907408-.9903275.4907408-1.8024862 0-.31491869-.0354938-.61740184-.1064815-.90745856-.0709882-.29005668-.1820983-.54419779-.3333333-.76243094-.1512356-.21823315-.3425916-.39226455-.5740741-.52209945-.231483-.1298349-.5077145-.19475138-.8287037-.19475138-.5679043 0-1.0138874.19474945-1.337963.58425414-.3240761.3895047-.4861111.99032744-.4861111 1.80248619zm5.8562089 0c0-.96685566.228393-1.70856096.6851851-2.22513812.4567927-.51657717 1.1080206-.77486188 1.9537037-.77486188.4567927 0 .8518503.07182247 1.1851852.21546961.3333349.14364715.6095669.34668375.8287037.60911603.2191369.26243227.3811724.57734622.4861111.94475138.1049388.36740515.1574074.77762205.1574074 1.23066298 0 .9668557-.2299357 1.708561-.6898148 2.2251381-.4598786.5165772-1.1157361.7748619-1.9675926.7748619-.4506193 0-.8410478-.0718225-1.1712963-.2154696-.3302484-.1436472-.6049372-.3466838-.824074-.609116-.2191369-.2624323-.3811724-.5773463-.4861111-.9447514-.1049388-.3674052-.1574074-.7776221-.1574074-1.230663zm.8148148 0c0 .3204436.0354938.624308.1064815.9116022.0709881.2872943.180555.5400542.3287037.7582873.1481491.2182332.3379619.3922646.5694444.5220995.2314825.1298348.5046281.1947513.8194444.1947513.5740772 0 1.0246899-.1947494 1.3518519-.5842541s.4907407-.9903275.4907407-1.8024862c0-.31491869-.0354933-.61740184-.1064815-.90745856-.0709876-.29005668-.1820977-.54419779-.3333333-.76243094-.1512351-.21823315-.3425915-.39226455-.5740741-.52209945-.2314825-.1298349-.5077145-.19475138-.8287037-.19475138-.5679038 0-1.0138873.19474945-1.3379629.58425414-.3240756.3895047-.4861111.99032744-.4861111 1.80248619zm6.1247278-2.90055249c.1172845-.01657467.2484558-.02900548.3935186-.03729281.1450622-.00828734.2962952-.01381216.4537037-.01657459.1574079-.00276243.3117273-.00552486.4629629-.00828729.1512351-.00276243.2916662-.00414365.4212963-.00414365.5185211 0 .9675906.07182247 1.3472222.21546961.3796317.14364715.6928997.34392137.9398149.60082873.2469146.25690737.430555.56491534.5509259.92403315.1203709.35911782.1805555.75414149.1805555 1.18508288 0 .39226716-.0570982.76933526-.1712963 1.13121546-.114198.3618803-.294752.6823191-.5416666.961326-.2469152.2790069-.5678992.5027616-.962963.6712707s-.8734542.2527624-1.4351852.2527624c-.0987659 0-.2268513-.0013812-.3842592-.0041436-.1574085-.0027625-.319444-.0082873-.4861111-.0165746-.1666677-.0082873-.3209872-.0151933-.462963-.0207182-.1419763-.005525-.2438272-.0138122-.3055556-.0248619zm1.75.54696133h-.2638889c-.0956795 0-.1898143.00276238-.2824074.00828729s-.1774686.01104968-.2546296.01657459-.1373457.01104968-.1805555.01657458v4.640884c.0308642.0055249.0895056.0096685.1759259.0124309.0864202.0027625.1759254.0055249.2685185.0082873s.1820983.0055249.2685185.0082873c.0864203.0027624.1450617.0041437.1759259.0041437.4321009 0 .7947516-.0662977 1.087963-.1988951.2932114-.1325973.5277768-.3107724.7037037-.5345304.175927-.223758.3009254-.4806615.375-.7707182s.1111111-.5897774.1111111-.89917126c0-.27071957-.0339501-.5428163-.1018518-.81629835-.0679018-.27348204-.1851847-.52071712-.3518519-.7417127-.1666677-.22099558-.3904305-.40193301-.6712963-.54281768-.2808657-.14088467-.6342572-.21132597-1.0601852-.21132597zm8.4765792 5.25414366h-3.8333333v-5.80110499h.7685185v5.18784529h3.0648148zm1.2913946-5.80110499h3.5277778v.61325967h-2.7592593v1.89779006h2.5277778v.61325966h-2.5277778v2.0635359h2.8055556v.6132597h-3.5740741zm11.9438997 5.80110499h-3.8333334v-5.80110499h.7685185v5.18784529h3.0648149zm1.4673204-5.80110499h.7685185v5.80110499h-.7685185zm6.7636163 1.32596685c0 .13812224-.0246909.27900479-.0740741.42265194-.0493827.14364714-.1234563.27762371-.2222222.4019337-.098766.12431004-.2253076.23342495-.3796297.32734807-.1543215.09392311-.3364187.16574562-.5462962.21546961v.03314917c.1851862.02762445.3626538.07458531.5324074.14088398.1697541.06629867.3194439.15745797.449074.27348067.1296307.1160227.2345679.2569052.3148148.4226519.0802475.1657467.1203704.3618773.1203704.5883978 0 .298344-.0694434.5566287-.2083333.7748619-.1388894.2182331-.3209861.3964081-.5462963.5345304-.2253097.1381222-.4830232.2403312-.7731482.3066298-.2901244.0662987-.5864182.0994475-.8888888.0994475h-.3703704c-.1419758 0-.2901224-.0041436-.4444445-.0124309-.1543215-.0082873-.3086409-.0193369-.4629629-.0331492-.1543215-.0138122-.2901224-.0345302-.4074074-.0621547v-5.70994473c.2283966-.03314935.4938256-.06077339.7962963-.08287293.3024706-.02209954.6327145-.03314917.9907407-.03314917.2407423 0 .4861101.01795562.7361111.0538674.2500016.03591179.4768508.10497187.6805556.20718233.2037047.10221045.371913.24447421.5046296.42679558.1327171.18232136.1990741.41712564.1990741.70441988zm-2.1481482 3.94475134c.1975319 0 .3888884-.020718.5740741-.0621547.1851862-.0414366.3487649-.1077343.4907407-.198895.1419764-.0911607.2546297-.203038.337963-.3356353.0833339-.1325974.125-.2900544.125-.4723757 0-.2265205-.0509254-.4088391-.1527778-.5469614-.1018523-.1381222-.2345668-.2458559-.3981481-.3232044-.1635808-.0773484-.3472212-.1298341-.5509259-.1574585-.2037048-.0276245-.4074064-.0414365-.6111112-.0414365h-.8055555v2.0801105c.0432104.0110498.1049383.019337.1851852.0248619.0802474.0055249.1666666.0110497.2592592.0165746.0925931.0055249.1882711.0096685.2870371.0124309.0987659.0027624.1851852.0041436.2592592.0041436zm-.5092592-2.718232c.1049388 0 .2314809-.00276238.3796296-.00828729.1481492-.00552491.2716044-.01381211.3703704-.02486188.1481491-.04419912.2870365-.09806598.4166666-.16160221.1296307-.06353623.2453699-.13812113.3472223-.22375691.1018523-.08563577.1820987-.18508232.2407407-.29834254.0586425-.11326022.087963-.2361872.087963-.36878453 0-.18232136-.0385798-.33287233-.1157408-.45165746-.0771605-.11878512-.1805545-.21408803-.3101852-.2859116-.1296301-.07182357-.2777767-.12292804-.4444444-.15331492-.1666672-.03038687-.3364187-.04558011-.5092593-.04558011-.2037047 0-.390431.0041436-.5601852.01243094-.1697536.00828734-.2978389.02071814-.3842592.03729282v1.97237569zm4.4950982-2.49447514c.2345689-.03867421.5046281-.06906068.8101852-.09116022s.5848755-.03314917.837963-.03314917c.2839521 0 .5540113.02762403.8101851.08287293.2561744.05524889.4814805.14640819.675926.27348066.1944454.12707247.3503081.29281667.4675926.49723757.1172844.2044209.1759259.4530372.1759259.74585636 0 .45304093-.1388874.82044056-.4166667 1.10220994-.2777793.28176937-.6296276.46961277-1.0555555.56353587l.4444444.3066299 1.6111111 2.2955801h-.8981481l-1.7870371-2.5027624-.9074074-.1243094v2.6270718h-.7685185zm1.6666667.47237569h-.25c-.0864203 0-.1697526.00276239-.25.0082873-.0802474.0055249-.1558637.01104967-.2268519.01657458-.0709881.00552491-.1280864.01381211-.1712963.02486188v2.13812155h.7222223c.4259279 0 .7777762-.09392173 1.0555555-.28176796.2777793-.18784622.4166667-.480661.4166667-.87845304 0-.29834401-.1141965-.54419792-.3425926-.73756906-.2283961-.19337113-.5462943-.29005525-.9537037-.29005525zm7.022876 3.66298345h-2.3888889l-.6481481 1.6077348h-.7592593l2.4537037-5.89226521h.3518519l2.4629629 5.89226521h-.8055555zm-2.1388889-.5966851h1.9074074l-.7222222-1.76519337-.2314815-.87845304h-.0092592l-.2314815.89502762zm4.8099126-3.53867404c.2345689-.03867421.504628-.06906068.8101851-.09116022s.5848756-.03314917.837963-.03314917c.2839522 0 .5540113.02762403.8101852.08287293.2561744.05524889.4814804.14640819.6759259.27348066s.3503081.29281667.4675926.49723757.1759259.4530372.1759259.74585636c0 .45304093-.1388873.82044056-.4166666 1.10220994-.2777788.28176937-.6296276.46961277-1.0555556.56353587l.4444444.3066299 1.6111112 2.2955801h-.8981482l-1.787037-2.5027624-.9074074-.1243094v2.6270718h-.7685185zm1.6666666.47237569h-.25c-.0864202 0-.1697526.00276239-.25.0082873-.0802474.0055249-.1558637.01104967-.2268518.01657458-.0709877.00552491-.1280859.01381211-.1712963.02486188v2.13812155h.7222222c.425928 0 .7777767-.09392173 1.0555555-.28176796.2777794-.18784622.4166667-.480661.4166667-.87845304 0-.29834401-.1141965-.54419792-.3425926-.73756906-.2283961-.19337113-.5462942-.29005525-.9537037-.29005525zm5.0506538 2.96685085-2.1388889-3.49723759h.8981482l1.5185185 2.53591161.1574074.50552488h.0092593l.1666666-.52209947 1.4537037-2.51933702h.8240741l-2.1203704 3.48895029v2.3121547h-.7685185z" fill="#666" opacity=".595279"/></g></g></svg>