<?xml version="1.0" encoding="UTF-8"?>
<svg width="800px" height="1000px" viewBox="0 0 800 1000" version="1.1" xmlns="http://www.w3.org/2000/svg" xmlns:xlink="http://www.w3.org/1999/xlink">
    <!-- Generator: Sketch 53.2 (72643) - https://sketchapp.com -->
    <title>handshake_DL</title>
    <desc>Created with Sketch.</desc>
    <g id="handshake_DL" stroke="none" stroke-width="1" fill="none" fill-rule="evenodd">
        <g id="logo-footer" transform="translate(518.000000, 673.000000)">
            <g>
                <path d="M110.812545,8.25651402 C110.904572,8.56348079 110.810146,8.81874549 110.573746,9.09365441 C110.548096,9.12348237 110.524607,9.14951827 110.482164,9.19539003 C110.410296,9.27306357 110.388406,9.29969141 110.394575,9.28699974 C110.158488,9.77253772 109.949286,10.3963755 109.78094,11.1092981 C109.323962,13.0450464 110.241419,14.6677006 112.137009,15.2172501 C114.194676,15.8138908 116.608374,14.6870388 117.500673,12.7424366 C118.556971,10.4412591 118.361229,8.87677042 116.832238,7.67717368 C114.960938,6.20902274 112.357851,6.27012948 111.072216,7.83985899 L110.795491,8.1777337 C110.794947,8.20051389 110.804056,8.228204 110.812545,8.25651402 Z M110.106083,6.26944954 C110.423589,5.88663707 110.955421,5.49967933 111.419965,5.30848582 C112.37958,4.91358991 113.68037,4.90617957 115.133698,5.23840657 C117.932917,5.87841333 120.108577,8.22064492 119.995807,10.6570534 C119.760531,15.7499925 113.426094,19.0246323 109.732148,15.5763745 C107.943744,13.9068501 107.553768,11.8021869 108.499361,9.2850154 C108.62423,8.95356867 108.851111,8.49010331 109.049811,8.18524994 C109.270059,7.84733807 109.481086,7.64146186 109.750777,7.55562368 C109.778602,7.54676715 109.806094,7.5393618 109.833231,7.53336632 C109.647627,7.16965375 109.747904,6.70130236 110.106083,6.26944954 Z" id="Fill-4" fill="#000000" fill-rule="nonzero"></path>
                <path d="M116,2.36382675 C116.035222,2.23410526 116.077249,2.03952302 116.14169,1.8509661 C116.280178,1.44230796 116.378641,1.03435869 116.377039,0.600890425 C116.376639,0.410561355 116.256963,0.110004457 116.623996,0.0412449782 C116.938196,-0.017590452 117.272408,-0.0501980398 117.512961,0.20711836 C117.655051,0.358460099 117.796741,0.518308165 117.8896,0.694814455 C118.216208,1.3175485 117.776729,2.53572545 117.114308,2.89086461 C116.612389,3.15987721 116.012808,2.911776 116,2.36382675" id="Fill-103" fill="#000000" fill-rule="nonzero"></path>
                <path d="M113.597281,1.30015424 C113.547641,1.6054057 113.484683,1.90995301 113.451993,2.21696486 C113.409214,2.61727733 113.068594,2.79366831 112.724342,2.93802021 C112.426905,3.06335991 112.146418,3.01090032 112.073774,2.6669203 C111.908307,1.88389925 112.059649,1.1040469 112.154086,0.329475719 C112.197269,-0.0278832593 112.773982,-0.106396611 113.167067,0.152380579 C113.512933,0.380527 113.619074,0.676272361 113.597281,1.30015424" id="Fill-107" fill="#000000" fill-rule="nonzero"></path>
                <path d="M112.19066,11.6823452 C110.632914,12.6206952 108.591708,13.9682577 107.051494,14.9237702 C106.603919,15.2015633 106.260092,15.3386205 105.847581,15.6483439 C105.453117,15.9444969 105.00264,16.1407116 104.673147,15.8744932 C104.334372,15.6006913 103.968388,15.4738054 104.253536,15.0032335 C104.507231,14.584149 104.804932,14.5525935 105.343775,14.3418539 C106.408054,13.9255633 108.032176,12.8044553 108.976827,12.2352987 C109.267132,12.0600815 109.780582,11.6912496 110.031699,11.4841022 C110.690685,10.9400907 110.546085,10.7856194 109.803565,10.2635599 C108.494872,9.34277154 106.87805,8.31351987 105.559045,7.40151231 C105.221301,7.16842154 104.87376,6.94291422 104.554064,6.69585398 C103.681603,6.022525 103.837029,5.29651112 105.037953,5.02270928 C105.314335,4.95964705 105.519044,5.02949445 105.664454,5.21269422 C106.875175,6.74015718 109.059218,7.93310366 110.770108,9.0590438 C111.354328,9.44340412 111.803432,9.85804585 112.62433,10.0292717 C113.067264,10.1214703 112.94712,10.4970498 112.994043,10.9392837 C113.057467,11.2214672 112.602656,11.4340876 112.19066,11.6823452 Z" id="chevron" fill="#000000" fill-rule="nonzero" transform="translate(108.500000, 10.500000) rotate(-2.000000) translate(-108.500000, -10.500000) "></path>
                <g id="the-Doodle-Library" transform="translate(0.000000, 7.000000)" fill="#666666" fill-rule="nonzero" opacity="0.595278533">
                    <path d="M4.80555555,0.712707182 L2.78703703,0.712707182 L2.78703703,5.90055249 L2.01851852,5.90055249 L2.01851852,0.712707182 L0,0.712707182 L0,0.0994475138 L4.80555555,0.0994475138 L4.80555555,0.712707182 Z M9.97657951,3.24033149 L6.8654684,3.24033149 L6.8654684,5.90055249 L6.09694989,5.90055249 L6.09694989,0.0994475138 L6.8654684,0.0994475138 L6.8654684,2.62707182 L9.97657951,2.62707182 L9.97657951,0.0994475138 L10.745098,0.0994475138 L10.745098,5.90055249 L9.97657951,5.90055249 L9.97657951,3.24033149 Z M12.6568627,0.0994475138 L16.1846405,0.0994475138 L16.1846405,0.712707182 L13.4253813,0.712707182 L13.4253813,2.61049724 L15.953159,2.61049724 L15.953159,3.22375691 L13.4253813,3.22375691 L13.4253813,5.28729282 L16.2309368,5.28729282 L16.2309368,5.90055249 L12.6568627,5.90055249 L12.6568627,0.0994475138 Z M20.7674291,0.0994475138 C20.8847137,0.0828728361 21.0158852,0.070442035 21.1609477,0.0621546961 C21.3060102,0.0538673573 21.4572432,0.0483425414 21.6146514,0.0455801105 C21.7720596,0.0428176796 21.926379,0.0400552486 22.0776143,0.0372928177 C22.2288497,0.0345303867 22.3692805,0.0331491713 22.4989106,0.0331491713 C23.0174317,0.0331491713 23.4665011,0.104971639 23.8461328,0.248618785 C24.2257645,0.39226593 24.539033,0.592540147 24.7859476,0.849447514 C25.0328623,1.10635488 25.2165027,1.41436285 25.3368736,1.77348066 C25.4572445,2.13259848 25.5174291,2.52762215 25.5174291,2.95856354 C25.5174291,3.35083071 25.4603309,3.72789876 25.3461328,4.08977901 C25.2319348,4.45165925 25.0513808,4.77209807 24.8044662,5.05110497 C24.5575516,5.33011188 24.236567,5.55386657 23.8415032,5.72237569 C23.4464394,5.89088481 22.9680495,5.97513812 22.406318,5.97513812 C22.3075521,5.97513812 22.179467,5.97375691 22.0220588,5.97099448 C21.8646506,5.96823204 21.7026152,5.96270723 21.5359477,5.95441989 C21.3692802,5.94613255 21.2149607,5.93922657 21.0729847,5.93370166 C20.9310087,5.92817675 20.8291578,5.91988955 20.7674291,5.90883978 L20.7674291,0.0994475138 Z M22.5174291,0.64640884 L22.2535402,0.64640884 C22.1578608,0.64640884 22.0637259,0.649171225 21.9711328,0.654696133 C21.8785398,0.660221041 21.7936641,0.66574581 21.7165032,0.671270718 C21.6393424,0.676795626 21.5791578,0.682320396 21.5359477,0.687845304 L21.5359477,5.32872928 C21.566812,5.33425419 21.6254534,5.33839779 21.7118736,5.34116022 C21.7982938,5.34392265 21.887799,5.34668508 21.9803921,5.34944751 C22.0729851,5.35220994 22.1624904,5.35497238 22.2489106,5.35773481 C22.3353309,5.36049724 22.3939723,5.36187845 22.4248365,5.36187845 C22.8569374,5.36187845 23.2195881,5.29558076 23.5127995,5.16298343 C23.8060109,5.0303861 24.0405762,4.85221105 24.2165032,4.62845304 C24.3924302,4.40469503 24.5174286,4.14779153 24.5915032,3.85773481 C24.6655778,3.56767813 24.7026143,3.26795737 24.7026143,2.95856354 C24.7026143,2.68784397 24.6686642,2.41574724 24.6007625,2.14226519 C24.5328607,1.86878315 24.4155783,1.62154807 24.2489106,1.40055249 C24.0822429,1.17955691 23.8584801,0.998619475 23.5776143,0.857734807 C23.2967486,0.716850138 22.9433571,0.64640884 22.5174291,0.64640884 Z M26.892157,3 C26.892157,2.03314434 27.1205495,1.29143904 27.5773422,0.774861878 C28.0341344,0.258284715 28.6853622,0 29.5310459,0 C29.9878381,0 30.3828957,0.0718224678 30.7162311,0.215469613 C31.0495659,0.359116759 31.3257979,0.562153361 31.5449348,0.824585635 C31.7640716,1.08701791 31.9261071,1.40193186 32.0310459,1.76933702 C32.1359847,2.13674217 32.1884533,2.54695907 32.1884533,3 C32.1884533,3.96685566 31.9585171,4.70856096 31.4986385,5.22513812 C31.0387594,5.74171529 30.3829019,6 29.5310459,6 C29.080426,6 28.6899981,5.92817753 28.3597496,5.78453039 C28.0295006,5.64088324 27.7548124,5.43784659 27.5356755,5.17541436 C27.3165387,4.91298209 27.1545032,4.59806814 27.0495644,4.23066298 C26.9446256,3.86325783 26.892157,3.45304093 26.892157,3 Z M27.7069718,3 C27.7069718,3.3204436 27.7424651,3.62430797 27.8134533,3.91160221 C27.884441,4.19889645 27.9940078,4.45165635 28.142157,4.6698895 C28.2903057,4.88812265 28.4801184,5.06215405 28.7116014,5.19198895 C28.943084,5.32182385 29.2162295,5.38674033 29.5310459,5.38674033 C30.1051225,5.38674033 30.5557352,5.19199088 30.8828977,4.80248619 C31.2100598,4.41298149 31.3736385,3.81215875 31.3736385,3 C31.3736385,2.68508131 31.3381447,2.38259816 31.267157,2.09254144 C31.1961688,1.80248476 31.0850587,1.54834365 30.9338237,1.3301105 C30.7825881,1.11187735 30.5912321,0.937845948 30.3597496,0.80801105 C30.1282666,0.678176151 29.8520351,0.613259669 29.5310459,0.613259669 C28.9631416,0.613259669 28.5171585,0.808009116 28.1930829,1.19751381 C27.8690068,1.58701851 27.7069718,2.18784125 27.7069718,3 Z M33.5631807,3 C33.5631807,2.03314434 33.7915737,1.29143904 34.2483658,0.774861878 C34.7051585,0.258284715 35.3563864,0 36.2020695,0 C36.6588622,0 37.0539198,0.0718224678 37.3872547,0.215469613 C37.7205896,0.359116759 37.9968216,0.562153361 38.2159584,0.824585635 C38.4350953,1.08701791 38.5971308,1.40193186 38.7020695,1.76933702 C38.8070083,2.13674217 38.8594769,2.54695907 38.8594769,3 C38.8594769,3.96685566 38.6295412,4.70856096 38.1696621,5.22513812 C37.7097835,5.74171529 37.053926,6 36.2020695,6 C35.7514502,6 35.3610217,5.92817753 35.0307732,5.78453039 C34.7005248,5.64088324 34.425836,5.43784659 34.2066992,5.17541436 C33.9875623,4.91298209 33.8255268,4.59806814 33.7205881,4.23066298 C33.6156493,3.86325783 33.5631807,3.45304093 33.5631807,3 Z M34.3779955,3 C34.3779955,3.3204436 34.4134893,3.62430797 34.484477,3.91160221 C34.5554651,4.19889645 34.665032,4.45165635 34.8131807,4.6698895 C34.9613298,4.88812265 35.1511426,5.06215405 35.3826251,5.19198895 C35.6141076,5.32182385 35.8872532,5.38674033 36.2020695,5.38674033 C36.7761467,5.38674033 37.2267594,5.19199088 37.5539214,4.80248619 C37.8810834,4.41298149 38.0446621,3.81215875 38.0446621,3 C38.0446621,2.68508131 38.0091688,2.38259816 37.9381806,2.09254144 C37.867193,1.80248476 37.7560829,1.54834365 37.6048473,1.3301105 C37.4536122,1.11187735 37.2622558,0.937845948 37.0307732,0.80801105 C36.7992907,0.678176151 36.5230587,0.613259669 36.2020695,0.613259669 C35.6341657,0.613259669 35.1881822,0.808009116 34.8641066,1.19751381 C34.540031,1.58701851 34.3779955,2.18784125 34.3779955,3 Z M40.5027233,0.0994475138 C40.6200078,0.0828728361 40.7511791,0.070442035 40.8962419,0.0621546961 C41.0413041,0.0538673573 41.1925371,0.0483425414 41.3499456,0.0455801105 C41.5073535,0.0428176796 41.6616729,0.0400552486 41.8129085,0.0372928177 C41.9641436,0.0345303867 42.1045747,0.0331491713 42.2342048,0.0331491713 C42.7527259,0.0331491713 43.2017954,0.104971639 43.581427,0.248618785 C43.9610587,0.39226593 44.2743267,0.592540147 44.5212419,0.849447514 C44.7681565,1.10635488 44.9517969,1.41436285 45.0721678,1.77348066 C45.1925387,2.13259848 45.2527233,2.52762215 45.2527233,2.95856354 C45.2527233,3.35083071 45.1956251,3.72789876 45.081427,4.08977901 C44.967229,4.45165925 44.786675,4.77209807 44.5397604,5.05110497 C44.2928452,5.33011188 43.9718612,5.55386657 43.5767974,5.72237569 C43.1817336,5.89088481 42.7033432,5.97513812 42.1416122,5.97513812 C42.0428463,5.97513812 41.9147609,5.97375691 41.757353,5.97099448 C41.5999445,5.96823204 41.437909,5.96270723 41.2712419,5.95441989 C41.1045742,5.94613255 40.9502547,5.93922657 40.8082789,5.93370166 C40.6663026,5.92817675 40.5644517,5.91988955 40.5027233,5.90883978 L40.5027233,0.0994475138 Z M42.2527233,0.64640884 L41.9888344,0.64640884 C41.8931549,0.64640884 41.7990201,0.649171225 41.706427,0.654696133 C41.6138339,0.660221041 41.5289584,0.66574581 41.4517974,0.671270718 C41.3746364,0.676795626 41.3144517,0.682320396 41.2712419,0.687845304 L41.2712419,5.32872928 C41.3021061,5.33425419 41.3607475,5.33839779 41.4471678,5.34116022 C41.533588,5.34392265 41.6230932,5.34668508 41.7156863,5.34944751 C41.8082794,5.35220994 41.8977846,5.35497238 41.9842048,5.35773481 C42.0706251,5.36049724 42.1292665,5.36187845 42.1601307,5.36187845 C42.5922316,5.36187845 42.9548823,5.29558076 43.2480937,5.16298343 C43.5413051,5.0303861 43.7758705,4.85221105 43.9517974,4.62845304 C44.1277244,4.40469503 44.2527228,4.14779153 44.3267974,3.85773481 C44.400872,3.56767813 44.4379085,3.26795737 44.4379085,2.95856354 C44.4379085,2.68784397 44.4039584,2.41574724 44.3360567,2.14226519 C44.2681549,1.86878315 44.150872,1.62154807 43.9842048,1.40055249 C43.8175371,1.17955691 43.5937743,0.998619475 43.3129085,0.857734807 C43.0320428,0.716850138 42.6786513,0.64640884 42.2527233,0.64640884 Z M50.7293025,5.90055249 L46.8959692,5.90055249 L46.8959692,0.0994475138 L47.6644877,0.0994475138 L47.6644877,5.28729282 L50.7293025,5.28729282 L50.7293025,5.90055249 Z M52.0206971,0.0994475138 L55.5484749,0.0994475138 L55.5484749,0.712707182 L52.7892156,0.712707182 L52.7892156,2.61049724 L55.3169934,2.61049724 L55.3169934,3.22375691 L52.7892156,3.22375691 L52.7892156,5.28729282 L55.5947712,5.28729282 L55.5947712,5.90055249 L52.0206971,5.90055249 L52.0206971,0.0994475138 Z M63.9645968,5.90055249 L60.1312634,5.90055249 L60.1312634,0.0994475138 L60.8997819,0.0994475138 L60.8997819,5.28729282 L63.9645968,5.28729282 L63.9645968,5.90055249 Z M65.4319172,0.0994475138 L66.2004357,0.0994475138 L66.2004357,5.90055249 L65.4319172,5.90055249 L65.4319172,0.0994475138 Z M72.1955335,1.42541436 C72.1955335,1.5635366 72.1708426,1.70441915 72.1214594,1.8480663 C72.0720767,1.99171344 71.9980031,2.12569001 71.8992372,2.25 C71.8004712,2.37431004 71.6739296,2.48342495 71.5196075,2.57734807 C71.365286,2.67127118 71.1831888,2.74309369 70.9733113,2.79281768 L70.9733113,2.82596685 C71.1584975,2.8535913 71.3359651,2.90055216 71.5057187,2.96685083 C71.6754728,3.03314949 71.8251626,3.12430879 71.9547927,3.24033149 C72.0844234,3.35635419 72.1893606,3.49723674 72.2696075,3.66298343 C72.349855,3.82873011 72.3899779,4.02486073 72.3899779,4.25138122 C72.3899779,4.54972523 72.3205345,4.80800994 72.1816446,5.02624309 C72.0427552,5.24447624 71.8606585,5.42265124 71.6353483,5.56077348 C71.4100386,5.69889572 71.1523251,5.80110465 70.8622001,5.86740331 C70.5720757,5.93370198 70.2757819,5.96685083 69.9733113,5.96685083 L69.6029409,5.96685083 C69.4609651,5.96685083 69.3128185,5.96270723 69.1584964,5.95441989 C69.0041749,5.94613255 68.8498555,5.93508297 68.6955335,5.92127072 C68.541212,5.90745852 68.4054111,5.88674047 68.2881261,5.85911602 L68.2881261,0.149171271 C68.5165227,0.116021915 68.7819517,0.0883978821 69.0844224,0.0662983425 C69.386893,0.0441988029 69.7171369,0.0331491713 70.0751631,0.0331491713 C70.3159054,0.0331491713 70.5612732,0.0511047882 70.8112742,0.0870165746 C71.0612758,0.122928361 71.288125,0.191988444 71.4918298,0.294198895 C71.6955345,0.396409346 71.8637428,0.538673112 71.9964594,0.720994475 C72.1291765,0.903315838 72.1955335,1.13812012 72.1955335,1.42541436 Z M70.0473853,5.37016575 C70.2449172,5.37016575 70.4362737,5.34944774 70.6214594,5.30801105 C70.8066456,5.2665744 70.9702243,5.2002767 71.1122001,5.10911602 C71.2541765,5.01795534 71.3668298,4.90607799 71.4501631,4.77348066 C71.533497,4.64088333 71.5751631,4.48342634 71.5751631,4.30110497 C71.5751631,4.07458448 71.5242377,3.89226588 71.4223853,3.75414365 C71.320533,3.61602141 71.1878185,3.50828766 71.0242372,3.43093923 C70.8606564,3.35359079 70.677016,3.30110511 70.4733113,3.27348066 C70.2696065,3.24585622 70.0659049,3.2320442 69.8622001,3.2320442 L69.0566446,3.2320442 L69.0566446,5.3121547 C69.099855,5.32320447 69.1615829,5.33149167 69.2418298,5.33701657 C69.3220772,5.34254148 69.4084964,5.34806625 69.501089,5.35359116 C69.5936821,5.35911607 69.6893601,5.36325967 69.7881261,5.3660221 C69.886892,5.36878453 69.9733113,5.37016575 70.0473853,5.37016575 Z M69.5381261,2.6519337 C69.6430649,2.6519337 69.769607,2.64917132 69.9177557,2.64364641 C70.0659049,2.6381215 70.1893601,2.6298343 70.2881261,2.61878453 C70.4362752,2.57458541 70.5751626,2.52071855 70.7047927,2.45718232 C70.8344234,2.39364609 70.9501626,2.31906119 71.052015,2.23342541 C71.1538673,2.14778964 71.2341137,2.04834309 71.2927557,1.93508287 C71.3513982,1.82182265 71.3807187,1.69889567 71.3807187,1.56629834 C71.3807187,1.38397698 71.3421389,1.23342601 71.2649779,1.11464088 C71.1878174,0.995855755 71.0844234,0.900552855 70.9547927,0.828729282 C70.8251626,0.756905709 70.677016,0.705801243 70.5103483,0.675414365 C70.3436811,0.645027486 70.1739296,0.629834254 70.001089,0.629834254 C69.7973843,0.629834254 69.610658,0.633977855 69.4409038,0.642265193 C69.2711502,0.650552532 69.1430649,0.662983333 69.0566446,0.679558011 L69.0566446,2.6519337 L69.5381261,2.6519337 Z M74.0332243,0.157458564 C74.2677932,0.118784346 74.5378524,0.0883978821 74.8434095,0.0662983425 C75.1489666,0.0441988029 75.428285,0.0331491713 75.6813725,0.0331491713 C75.9653246,0.0331491713 76.2353838,0.0607732044 76.4915576,0.116022099 C76.747732,0.171270994 76.9730381,0.262430295 77.1674836,0.389502762 C77.361929,0.51657523 77.5177917,0.682319429 77.6350762,0.886740331 C77.7523606,1.09116123 77.8110021,1.33977753 77.8110021,1.63259669 C77.8110021,2.08563762 77.6721147,2.45303725 77.3943354,2.73480663 C77.1165561,3.01657601 76.7647078,3.20441943 76.3387799,3.29834254 L76.7832243,3.60497238 L78.3943354,5.90055249 L77.4961873,5.90055249 L75.7091502,3.39779006 L74.8017428,3.27348066 L74.8017428,5.90055249 L74.0332243,5.90055249 L74.0332243,0.157458564 Z M75.699891,0.629834254 L75.449891,0.629834254 C75.3634707,0.629834254 75.2801384,0.632596639 75.199891,0.638121547 C75.1196436,0.643646455 75.0440273,0.649171225 74.9730391,0.654696133 C74.902051,0.660221041 74.8449527,0.668508241 74.8017428,0.679558011 L74.8017428,2.81767956 L75.5239651,2.81767956 C75.949893,2.81767956 76.3017413,2.72375783 76.5795206,2.5359116 C76.8572999,2.34806538 76.9961873,2.0552506 76.9961873,1.65745856 C76.9961873,1.35911455 76.8819908,1.11326064 76.6535947,0.919889503 C76.4251986,0.72651837 76.1073004,0.629834254 75.699891,0.629834254 Z M82.722767,4.29281768 L80.3338781,4.29281768 L79.68573,5.90055249 L78.9264707,5.90055249 L81.3801744,0.00828729282 L81.7320263,0.00828729282 L84.1949892,5.90055249 L83.3894337,5.90055249 L82.722767,4.29281768 Z M80.5838781,3.6961326 L82.4912855,3.6961326 L81.7690633,1.93093923 L81.5375818,1.05248619 L81.5283226,1.05248619 L81.2968411,1.94751381 L80.5838781,3.6961326 Z M85.3937907,0.157458564 C85.6283596,0.118784346 85.8984187,0.0883978821 86.2039758,0.0662983425 C86.5095329,0.0441988029 86.7888514,0.0331491713 87.0419388,0.0331491713 C87.325891,0.0331491713 87.5959501,0.0607732044 87.852124,0.116022099 C88.1082984,0.171270994 88.3336044,0.262430295 88.5280499,0.389502762 C88.7224954,0.51657523 88.878358,0.682319429 88.9956425,0.886740331 C89.112927,1.09116123 89.1715684,1.33977753 89.1715684,1.63259669 C89.1715684,2.08563762 89.0326811,2.45303725 88.7549018,2.73480663 C88.477123,3.01657601 88.1252742,3.20441943 87.6993462,3.29834254 L88.1437906,3.60497238 L89.7549018,5.90055249 L88.8567536,5.90055249 L87.0697166,3.39779006 L86.1623092,3.27348066 L86.1623092,5.90055249 L85.3937907,5.90055249 L85.3937907,0.157458564 Z M87.0604573,0.629834254 L86.8104573,0.629834254 C86.7240371,0.629834254 86.6407047,0.632596639 86.5604573,0.638121547 C86.4802099,0.643646455 86.4045936,0.649171225 86.3336055,0.654696133 C86.2626178,0.660221041 86.2055196,0.668508241 86.1623092,0.679558011 L86.1623092,2.81767956 L86.8845314,2.81767956 C87.3104594,2.81767956 87.6623081,2.72375783 87.9400869,2.5359116 C88.2178663,2.34806538 88.3567536,2.0552506 88.3567536,1.65745856 C88.3567536,1.35911455 88.2425571,1.11326064 88.014161,0.919889503 C87.7857649,0.72651837 87.4678668,0.629834254 87.0604573,0.629834254 Z M92.1111111,3.59668508 L89.9722222,0.0994475138 L90.8703704,0.0994475138 L92.3888889,2.63535912 L92.5462963,3.14088398 L92.5555556,3.14088398 L92.7222222,2.61878453 L94.1759259,0.0994475138 L95,0.0994475138 L92.8796296,3.58839779 L92.8796296,5.90055249 L92.1111111,5.90055249 L92.1111111,3.59668508 Z"></path>
                </g>
            </g>
        </g>
        <g id="handshake" transform="translate(260.000000, 447.000000)" stroke="#000000" stroke-linecap="round" stroke-linejoin="round" stroke-width="16">
            <path d="M37.0121749,4 C44.6361838,10.8767675 77.9811792,21.2701447 80.9989461,29.8702723 C81.2024795,30.4503081 51.8619506,91.9990365 48.0365486,92.6370529 C32.0316154,95.3004503 15.8162363,82.5817479 0,78.0728131" id="Path" opacity="0.495256696"></path>
            <path d="M256.538216,0 C239.230898,4.98966649 247.530163,2.38428894 231.614648,7.73810137 C223.195104,10.5732377 206.128344,15.5368937 199.02328,20.3141418 C196.119397,22.2692587 200.247551,26.9251247 200.939156,29.023299 C204.384296,39.4448092 214.152685,99.1213938 217.236988,99.6416023 C233.238417,102.333681 254.209954,89.1377258 269,84.1610645" id="Path" opacity="0.495256696"></path>
            <path d="M191.416667,25.0440823 C177.682524,25.0440823 142.738983,15.9448971 130.550495,25.0440823 C123.567777,30.2614065 111.909786,61.1316481 124.775412,64.3307481 C133.897369,66.6023239 142.035967,49.5891235 149.799335,48.0432497 C156.596595,46.6906101 191.648201,66.2244436 196,72" id="Path"></path>
            <path d="M195.998156,75 C196.186373,86.4514194 181.905536,102.465656 179.410572,104.922616 C175.21728,109.063608 169.270493,113.49986 149,116" id="Path"></path>
            <path d="M83.6973733,79.4125707 C90.919893,77.7197173 93.9367626,81.2364306 92.747982,89.9627107 C87.1174803,102.674888 69.7572859,99.4063587 78.3422983,86.4713807" id="Path"></path>
            <path d="M111.19937,84.1801096 C117.96387,82.9190901 118.81197,88.279748 113.743671,100.262083 C109.02499,112.380859 96.8463425,106.862557 99.330604,93.9293037" id="Path"></path>
            <path d="M130.019663,94 C136.673221,94 140,98.6162421 140,107.848726 C139.225375,117.557529 122,121.099685 122,104.179174" id="Path"></path>
            <path d="M122,39.1251806 C115.068273,39.0814552 107.359807,36.8481266 98.4969274,37.0082107 C89.6340483,37.1682948 84.2889737,38.5 76,40" id="Path"></path>
            <path d="M176.319704,80.5 C179.732489,82.8333333 181.845752,84 182.659494,84" id="Path-2"></path>
            <path d="M167,95 C170.927378,98.3333333 173.594045,100 175,100" id="Path-2"></path>
            <path d="M152,107 C155.927378,110.333333 158.594045,112 160,112" id="Path-2"></path>
            <path d="M75,89 C63.8659938,87 56.7642404,86 53.6947398,86 C50.6252393,86 57.7269927,87 75,89 Z" id="Path-3"></path>
        </g>
    </g>
</svg>