<?xml version="1.0" encoding="UTF-8"?>
<svg width="800px" height="1000px" viewBox="0 0 800 1000" version="1.1" xmlns="http://www.w3.org/2000/svg" xmlns:xlink="http://www.w3.org/1999/xlink">
    <!-- Generator: Sketch 52.5 (67469) - http://www.bohemiancoding.com/sketch -->
    <title>hand drawing_DL</title>
    <desc>Created with Sketch.</desc>
    <g id="hand-drawing_DL" stroke="none" stroke-width="1" fill="none" fill-rule="evenodd">
        <g id="logo-footer" transform="translate(510.000000, 745.000000)">
            <g>
                <path d="M110.812545,8.25651402 C110.904572,8.56348079 110.810146,8.81874549 110.573746,9.09365441 C110.548096,9.12348237 110.524607,9.14951827 110.482164,9.19539003 C110.410296,9.27306357 110.388406,9.29969141 110.394575,9.28699974 C110.158488,9.77253772 109.949286,10.3963755 109.78094,11.1092981 C109.323962,13.0450464 110.241419,14.6677006 112.137009,15.2172501 C114.194676,15.8138908 116.608374,14.6870388 117.500673,12.7424366 C118.556971,10.4412591 118.361229,8.87677042 116.832238,7.67717368 C114.960938,6.20902274 112.357851,6.27012948 111.072216,7.83985899 L110.795491,8.1777337 C110.794947,8.20051389 110.804056,8.228204 110.812545,8.25651402 Z M110.106083,6.26944954 C110.423589,5.88663707 110.955421,5.49967933 111.419965,5.30848582 C112.37958,4.91358991 113.68037,4.90617957 115.133698,5.23840657 C117.932917,5.87841333 120.108577,8.22064492 119.995807,10.6570534 C119.760531,15.7499925 113.426094,19.0246323 109.732148,15.5763745 C107.943744,13.9068501 107.553768,11.8021869 108.499361,9.2850154 C108.62423,8.95356867 108.851111,8.49010331 109.049811,8.18524994 C109.270059,7.84733807 109.481086,7.64146186 109.750777,7.55562368 C109.778602,7.54676715 109.806094,7.5393618 109.833231,7.53336632 C109.647627,7.16965375 109.747904,6.70130236 110.106083,6.26944954 Z" id="Fill-4" fill="#000000" fill-rule="nonzero"></path>
                <path d="M116,2.36382675 C116.035222,2.23410526 116.077249,2.03952302 116.14169,1.8509661 C116.280178,1.44230796 116.378641,1.03435869 116.377039,0.600890425 C116.376639,0.410561355 116.256963,0.110004457 116.623996,0.0412449782 C116.938196,-0.017590452 117.272408,-0.0501980398 117.512961,0.20711836 C117.655051,0.358460099 117.796741,0.518308165 117.8896,0.694814455 C118.216208,1.3175485 117.776729,2.53572545 117.114308,2.89086461 C116.612389,3.15987721 116.012808,2.911776 116,2.36382675" id="Fill-103" fill="#000000" fill-rule="nonzero"></path>
                <path d="M113.597281,1.30015424 C113.547641,1.6054057 113.484683,1.90995301 113.451993,2.21696486 C113.409214,2.61727733 113.068594,2.79366831 112.724342,2.93802021 C112.426905,3.06335991 112.146418,3.01090032 112.073774,2.6669203 C111.908307,1.88389925 112.059649,1.1040469 112.154086,0.329475719 C112.197269,-0.0278832593 112.773982,-0.106396611 113.167067,0.152380579 C113.512933,0.380527 113.619074,0.676272361 113.597281,1.30015424" id="Fill-107" fill="#000000" fill-rule="nonzero"></path>
                <path d="M112.19066,11.6823452 C110.632914,12.6206952 108.591708,13.9682577 107.051494,14.9237702 C106.603919,15.2015633 106.260092,15.3386205 105.847581,15.6483439 C105.453117,15.9444969 105.00264,16.1407116 104.673147,15.8744932 C104.334372,15.6006913 103.968388,15.4738054 104.253536,15.0032335 C104.507231,14.584149 104.804932,14.5525935 105.343775,14.3418539 C106.408054,13.9255633 108.032176,12.8044553 108.976827,12.2352987 C109.267132,12.0600815 109.780582,11.6912496 110.031699,11.4841022 C110.690685,10.9400907 110.546085,10.7856194 109.803565,10.2635599 C108.494872,9.34277154 106.87805,8.31351987 105.559045,7.40151231 C105.221301,7.16842154 104.87376,6.94291422 104.554064,6.69585398 C103.681603,6.022525 103.837029,5.29651112 105.037953,5.02270928 C105.314335,4.95964705 105.519044,5.02949445 105.664454,5.21269422 C106.875175,6.74015718 109.059218,7.93310366 110.770108,9.0590438 C111.354328,9.44340412 111.803432,9.85804585 112.62433,10.0292717 C113.067264,10.1214703 112.94712,10.4970498 112.994043,10.9392837 C113.057467,11.2214672 112.602656,11.4340876 112.19066,11.6823452 Z" id="chevron" fill="#000000" fill-rule="nonzero" transform="translate(108.500000, 10.500000) rotate(-2.000000) translate(-108.500000, -10.500000) "></path>
                <path d="M4.80555555,7.71270718 L2.78703703,7.71270718 L2.78703703,12.9005525 L2.01851852,12.9005525 L2.01851852,7.71270718 L0,7.71270718 L0,7.09944751 L4.80555555,7.09944751 L4.80555555,7.71270718 Z M9.97657951,10.2403315 L6.8654684,10.2403315 L6.8654684,12.9005525 L6.09694989,12.9005525 L6.09694989,7.09944751 L6.8654684,7.09944751 L6.8654684,9.62707182 L9.97657951,9.62707182 L9.97657951,7.09944751 L10.745098,7.09944751 L10.745098,12.9005525 L9.97657951,12.9005525 L9.97657951,10.2403315 Z M12.6568627,7.09944751 L16.1846405,7.09944751 L16.1846405,7.71270718 L13.4253813,7.71270718 L13.4253813,9.61049724 L15.953159,9.61049724 L15.953159,10.2237569 L13.4253813,10.2237569 L13.4253813,12.2872928 L16.2309368,12.2872928 L16.2309368,12.9005525 L12.6568627,12.9005525 L12.6568627,7.09944751 Z M20.7674291,7.09944751 C20.8847137,7.08287284 21.0158852,7.07044203 21.1609477,7.0621547 C21.3060102,7.05386736 21.4572432,7.04834254 21.6146514,7.04558011 C21.7720596,7.04281768 21.926379,7.04005525 22.0776143,7.03729282 C22.2288497,7.03453039 22.3692805,7.03314917 22.4989106,7.03314917 C23.0174317,7.03314917 23.4665011,7.10497164 23.8461328,7.24861878 C24.2257645,7.39226593 24.539033,7.59254015 24.7859476,7.84944751 C25.0328623,8.10635488 25.2165027,8.41436285 25.3368736,8.77348066 C25.4572445,9.13259848 25.5174291,9.52762215 25.5174291,9.95856354 C25.5174291,10.3508307 25.4603309,10.7278988 25.3461328,11.089779 C25.2319348,11.4516593 25.0513808,11.7720981 24.8044662,12.051105 C24.5575516,12.3301119 24.236567,12.5538666 23.8415032,12.7223757 C23.4464394,12.8908848 22.9680495,12.9751381 22.406318,12.9751381 C22.3075521,12.9751381 22.179467,12.9737569 22.0220588,12.9709945 C21.8646506,12.968232 21.7026152,12.9627072 21.5359477,12.9544199 C21.3692802,12.9461326 21.2149607,12.9392266 21.0729847,12.9337017 C20.9310087,12.9281767 20.8291578,12.9198895 20.7674291,12.9088398 L20.7674291,7.09944751 Z M22.5174291,7.64640884 L22.2535402,7.64640884 C22.1578608,7.64640884 22.0637259,7.64917122 21.9711328,7.65469613 C21.8785398,7.66022104 21.7936641,7.66574581 21.7165032,7.67127072 C21.6393424,7.67679563 21.5791578,7.6823204 21.5359477,7.6878453 L21.5359477,12.3287293 C21.566812,12.3342542 21.6254534,12.3383978 21.7118736,12.3411602 C21.7982938,12.3439227 21.887799,12.3466851 21.9803921,12.3494475 C22.0729851,12.3522099 22.1624904,12.3549724 22.2489106,12.3577348 C22.3353309,12.3604972 22.3939723,12.3618785 22.4248365,12.3618785 C22.8569374,12.3618785 23.2195881,12.2955808 23.5127995,12.1629834 C23.8060109,12.0303861 24.0405762,11.852211 24.2165032,11.628453 C24.3924302,11.404695 24.5174286,11.1477915 24.5915032,10.8577348 C24.6655778,10.5676781 24.7026143,10.2679574 24.7026143,9.95856354 C24.7026143,9.68784397 24.6686642,9.41574724 24.6007625,9.14226519 C24.5328607,8.86878315 24.4155783,8.62154807 24.2489106,8.40055249 C24.0822429,8.17955691 23.8584801,7.99861948 23.5776143,7.85773481 C23.2967486,7.71685014 22.9433571,7.64640884 22.5174291,7.64640884 Z M26.892157,10 C26.892157,9.03314434 27.1205495,8.29143904 27.5773422,7.77486188 C28.0341344,7.25828471 28.6853622,7 29.5310459,7 C29.9878381,7 30.3828957,7.07182247 30.7162311,7.21546961 C31.0495659,7.35911676 31.3257979,7.56215336 31.5449348,7.82458564 C31.7640716,8.08701791 31.9261071,8.40193186 32.0310459,8.76933702 C32.1359847,9.13674217 32.1884533,9.54695907 32.1884533,10 C32.1884533,10.9668557 31.9585171,11.708561 31.4986385,12.2251381 C31.0387594,12.7417153 30.3829019,13 29.5310459,13 C29.080426,13 28.6899981,12.9281775 28.3597496,12.7845304 C28.0295006,12.6408832 27.7548124,12.4378466 27.5356755,12.1754144 C27.3165387,11.9129821 27.1545032,11.5980681 27.0495644,11.230663 C26.9446256,10.8632578 26.892157,10.4530409 26.892157,10 Z M27.7069718,10 C27.7069718,10.3204436 27.7424651,10.624308 27.8134533,10.9116022 C27.884441,11.1988965 27.9940078,11.4516564 28.142157,11.6698895 C28.2903057,11.8881227 28.4801184,12.0621541 28.7116014,12.191989 C28.943084,12.3218238 29.2162295,12.3867403 29.5310459,12.3867403 C30.1051225,12.3867403 30.5557352,12.1919909 30.8828977,11.8024862 C31.2100598,11.4129815 31.3736385,10.8121587 31.3736385,10 C31.3736385,9.68508131 31.3381447,9.38259816 31.267157,9.09254144 C31.1961688,8.80248476 31.0850587,8.54834365 30.9338237,8.3301105 C30.7825881,8.11187735 30.5912321,7.93784595 30.3597496,7.80801105 C30.1282666,7.67817615 29.8520351,7.61325967 29.5310459,7.61325967 C28.9631416,7.61325967 28.5171585,7.80800912 28.1930829,8.19751381 C27.8690068,8.58701851 27.7069718,9.18784125 27.7069718,10 Z M33.5631807,10 C33.5631807,9.03314434 33.7915737,8.29143904 34.2483658,7.77486188 C34.7051585,7.25828471 35.3563864,7 36.2020695,7 C36.6588622,7 37.0539198,7.07182247 37.3872547,7.21546961 C37.7205896,7.35911676 37.9968216,7.56215336 38.2159584,7.82458564 C38.4350953,8.08701791 38.5971308,8.40193186 38.7020695,8.76933702 C38.8070083,9.13674217 38.8594769,9.54695907 38.8594769,10 C38.8594769,10.9668557 38.6295412,11.708561 38.1696621,12.2251381 C37.7097835,12.7417153 37.053926,13 36.2020695,13 C35.7514502,13 35.3610217,12.9281775 35.0307732,12.7845304 C34.7005248,12.6408832 34.425836,12.4378466 34.2066992,12.1754144 C33.9875623,11.9129821 33.8255268,11.5980681 33.7205881,11.230663 C33.6156493,10.8632578 33.5631807,10.4530409 33.5631807,10 Z M34.3779955,10 C34.3779955,10.3204436 34.4134893,10.624308 34.484477,10.9116022 C34.5554651,11.1988965 34.665032,11.4516564 34.8131807,11.6698895 C34.9613298,11.8881227 35.1511426,12.0621541 35.3826251,12.191989 C35.6141076,12.3218238 35.8872532,12.3867403 36.2020695,12.3867403 C36.7761467,12.3867403 37.2267594,12.1919909 37.5539214,11.8024862 C37.8810834,11.4129815 38.0446621,10.8121587 38.0446621,10 C38.0446621,9.68508131 38.0091688,9.38259816 37.9381806,9.09254144 C37.867193,8.80248476 37.7560829,8.54834365 37.6048473,8.3301105 C37.4536122,8.11187735 37.2622558,7.93784595 37.0307732,7.80801105 C36.7992907,7.67817615 36.5230587,7.61325967 36.2020695,7.61325967 C35.6341657,7.61325967 35.1881822,7.80800912 34.8641066,8.19751381 C34.540031,8.58701851 34.3779955,9.18784125 34.3779955,10 Z M40.5027233,7.09944751 C40.6200078,7.08287284 40.7511791,7.07044203 40.8962419,7.0621547 C41.0413041,7.05386736 41.1925371,7.04834254 41.3499456,7.04558011 C41.5073535,7.04281768 41.6616729,7.04005525 41.8129085,7.03729282 C41.9641436,7.03453039 42.1045747,7.03314917 42.2342048,7.03314917 C42.7527259,7.03314917 43.2017954,7.10497164 43.581427,7.24861878 C43.9610587,7.39226593 44.2743267,7.59254015 44.5212419,7.84944751 C44.7681565,8.10635488 44.9517969,8.41436285 45.0721678,8.77348066 C45.1925387,9.13259848 45.2527233,9.52762215 45.2527233,9.95856354 C45.2527233,10.3508307 45.1956251,10.7278988 45.081427,11.089779 C44.967229,11.4516593 44.786675,11.7720981 44.5397604,12.051105 C44.2928452,12.3301119 43.9718612,12.5538666 43.5767974,12.7223757 C43.1817336,12.8908848 42.7033432,12.9751381 42.1416122,12.9751381 C42.0428463,12.9751381 41.9147609,12.9737569 41.757353,12.9709945 C41.5999445,12.968232 41.437909,12.9627072 41.2712419,12.9544199 C41.1045742,12.9461326 40.9502547,12.9392266 40.8082789,12.9337017 C40.6663026,12.9281767 40.5644517,12.9198895 40.5027233,12.9088398 L40.5027233,7.09944751 Z M42.2527233,7.64640884 L41.9888344,7.64640884 C41.8931549,7.64640884 41.7990201,7.64917122 41.706427,7.65469613 C41.6138339,7.66022104 41.5289584,7.66574581 41.4517974,7.67127072 C41.3746364,7.67679563 41.3144517,7.6823204 41.2712419,7.6878453 L41.2712419,12.3287293 C41.3021061,12.3342542 41.3607475,12.3383978 41.4471678,12.3411602 C41.533588,12.3439227 41.6230932,12.3466851 41.7156863,12.3494475 C41.8082794,12.3522099 41.8977846,12.3549724 41.9842048,12.3577348 C42.0706251,12.3604972 42.1292665,12.3618785 42.1601307,12.3618785 C42.5922316,12.3618785 42.9548823,12.2955808 43.2480937,12.1629834 C43.5413051,12.0303861 43.7758705,11.852211 43.9517974,11.628453 C44.1277244,11.404695 44.2527228,11.1477915 44.3267974,10.8577348 C44.400872,10.5676781 44.4379085,10.2679574 44.4379085,9.95856354 C44.4379085,9.68784397 44.4039584,9.41574724 44.3360567,9.14226519 C44.2681549,8.86878315 44.150872,8.62154807 43.9842048,8.40055249 C43.8175371,8.17955691 43.5937743,7.99861948 43.3129085,7.85773481 C43.0320428,7.71685014 42.6786513,7.64640884 42.2527233,7.64640884 Z M50.7293025,12.9005525 L46.8959692,12.9005525 L46.8959692,7.09944751 L47.6644877,7.09944751 L47.6644877,12.2872928 L50.7293025,12.2872928 L50.7293025,12.9005525 Z M52.0206971,7.09944751 L55.5484749,7.09944751 L55.5484749,7.71270718 L52.7892156,7.71270718 L52.7892156,9.61049724 L55.3169934,9.61049724 L55.3169934,10.2237569 L52.7892156,10.2237569 L52.7892156,12.2872928 L55.5947712,12.2872928 L55.5947712,12.9005525 L52.0206971,12.9005525 L52.0206971,7.09944751 Z M63.9645968,12.9005525 L60.1312634,12.9005525 L60.1312634,7.09944751 L60.8997819,7.09944751 L60.8997819,12.2872928 L63.9645968,12.2872928 L63.9645968,12.9005525 Z M65.4319172,7.09944751 L66.2004357,7.09944751 L66.2004357,12.9005525 L65.4319172,12.9005525 L65.4319172,7.09944751 Z M72.1955335,8.42541436 C72.1955335,8.5635366 72.1708426,8.70441915 72.1214594,8.8480663 C72.0720767,8.99171344 71.9980031,9.12569001 71.8992372,9.25 C71.8004712,9.37431004 71.6739296,9.48342495 71.5196075,9.57734807 C71.365286,9.67127118 71.1831888,9.74309369 70.9733113,9.79281768 L70.9733113,9.82596685 C71.1584975,9.8535913 71.3359651,9.90055216 71.5057187,9.96685083 C71.6754728,10.0331495 71.8251626,10.1243088 71.9547927,10.2403315 C72.0844234,10.3563542 72.1893606,10.4972367 72.2696075,10.6629834 C72.349855,10.8287301 72.3899779,11.0248607 72.3899779,11.2513812 C72.3899779,11.5497252 72.3205345,11.8080099 72.1816446,12.0262431 C72.0427552,12.2444762 71.8606585,12.4226512 71.6353483,12.5607735 C71.4100386,12.6988957 71.1523251,12.8011047 70.8622001,12.8674033 C70.5720757,12.933702 70.2757819,12.9668508 69.9733113,12.9668508 L69.6029409,12.9668508 C69.4609651,12.9668508 69.3128185,12.9627072 69.1584964,12.9544199 C69.0041749,12.9461326 68.8498555,12.935083 68.6955335,12.9212707 C68.541212,12.9074585 68.4054111,12.8867405 68.2881261,12.859116 L68.2881261,7.14917127 C68.5165227,7.11602192 68.7819517,7.08839788 69.0844224,7.06629834 C69.386893,7.0441988 69.7171369,7.03314917 70.0751631,7.03314917 C70.3159054,7.03314917 70.5612732,7.05110479 70.8112742,7.08701657 C71.0612758,7.12292836 71.288125,7.19198844 71.4918298,7.2941989 C71.6955345,7.39640935 71.8637428,7.53867311 71.9964594,7.72099448 C72.1291765,7.90331584 72.1955335,8.13812012 72.1955335,8.42541436 Z M70.0473853,12.3701657 C70.2449172,12.3701657 70.4362737,12.3494477 70.6214594,12.308011 C70.8066456,12.2665744 70.9702243,12.2002767 71.1122001,12.109116 C71.2541765,12.0179553 71.3668298,11.906078 71.4501631,11.7734807 C71.533497,11.6408833 71.5751631,11.4834263 71.5751631,11.301105 C71.5751631,11.0745845 71.5242377,10.8922659 71.4223853,10.7541436 C71.320533,10.6160214 71.1878185,10.5082877 71.0242372,10.4309392 C70.8606564,10.3535908 70.677016,10.3011051 70.4733113,10.2734807 C70.2696065,10.2458562 70.0659049,10.2320442 69.8622001,10.2320442 L69.0566446,10.2320442 L69.0566446,12.3121547 C69.099855,12.3232045 69.1615829,12.3314917 69.2418298,12.3370166 C69.3220772,12.3425415 69.4084964,12.3480663 69.501089,12.3535912 C69.5936821,12.3591161 69.6893601,12.3632597 69.7881261,12.3660221 C69.886892,12.3687845 69.9733113,12.3701657 70.0473853,12.3701657 Z M69.5381261,9.6519337 C69.6430649,9.6519337 69.769607,9.64917132 69.9177557,9.64364641 C70.0659049,9.6381215 70.1893601,9.6298343 70.2881261,9.61878453 C70.4362752,9.57458541 70.5751626,9.52071855 70.7047927,9.45718232 C70.8344234,9.39364609 70.9501626,9.31906119 71.052015,9.23342541 C71.1538673,9.14778964 71.2341137,9.04834309 71.2927557,8.93508287 C71.3513982,8.82182265 71.3807187,8.69889567 71.3807187,8.56629834 C71.3807187,8.38397698 71.3421389,8.23342601 71.2649779,8.11464088 C71.1878174,7.99585576 71.0844234,7.90055285 70.9547927,7.82872928 C70.8251626,7.75690571 70.677016,7.70580124 70.5103483,7.67541436 C70.3436811,7.64502749 70.1739296,7.62983425 70.001089,7.62983425 C69.7973843,7.62983425 69.610658,7.63397785 69.4409038,7.64226519 C69.2711502,7.65055253 69.1430649,7.66298333 69.0566446,7.67955801 L69.0566446,9.6519337 L69.5381261,9.6519337 Z M74.0332243,7.15745856 C74.2677932,7.11878435 74.5378524,7.08839788 74.8434095,7.06629834 C75.1489666,7.0441988 75.428285,7.03314917 75.6813725,7.03314917 C75.9653246,7.03314917 76.2353838,7.0607732 76.4915576,7.1160221 C76.747732,7.17127099 76.9730381,7.26243029 77.1674836,7.38950276 C77.361929,7.51657523 77.5177917,7.68231943 77.6350762,7.88674033 C77.7523606,8.09116123 77.8110021,8.33977753 77.8110021,8.63259669 C77.8110021,9.08563762 77.6721147,9.45303725 77.3943354,9.73480663 C77.1165561,10.016576 76.7647078,10.2044194 76.3387799,10.2983425 L76.7832243,10.6049724 L78.3943354,12.9005525 L77.4961873,12.9005525 L75.7091502,10.3977901 L74.8017428,10.2734807 L74.8017428,12.9005525 L74.0332243,12.9005525 L74.0332243,7.15745856 Z M75.699891,7.62983425 L75.449891,7.62983425 C75.3634707,7.62983425 75.2801384,7.63259664 75.199891,7.63812155 C75.1196436,7.64364645 75.0440273,7.64917122 74.9730391,7.65469613 C74.902051,7.66022104 74.8449527,7.66850824 74.8017428,7.67955801 L74.8017428,9.81767956 L75.5239651,9.81767956 C75.949893,9.81767956 76.3017413,9.72375783 76.5795206,9.5359116 C76.8572999,9.34806538 76.9961873,9.0552506 76.9961873,8.65745856 C76.9961873,8.35911455 76.8819908,8.11326064 76.6535947,7.9198895 C76.4251986,7.72651837 76.1073004,7.62983425 75.699891,7.62983425 Z M82.722767,11.2928177 L80.3338781,11.2928177 L79.68573,12.9005525 L78.9264707,12.9005525 L81.3801744,7.00828729 L81.7320263,7.00828729 L84.1949892,12.9005525 L83.3894337,12.9005525 L82.722767,11.2928177 Z M80.5838781,10.6961326 L82.4912855,10.6961326 L81.7690633,8.93093923 L81.5375818,8.05248619 L81.5283226,8.05248619 L81.2968411,8.94751381 L80.5838781,10.6961326 Z M85.3937907,7.15745856 C85.6283596,7.11878435 85.8984187,7.08839788 86.2039758,7.06629834 C86.5095329,7.0441988 86.7888514,7.03314917 87.0419388,7.03314917 C87.325891,7.03314917 87.5959501,7.0607732 87.852124,7.1160221 C88.1082984,7.17127099 88.3336044,7.26243029 88.5280499,7.38950276 C88.7224954,7.51657523 88.878358,7.68231943 88.9956425,7.88674033 C89.112927,8.09116123 89.1715684,8.33977753 89.1715684,8.63259669 C89.1715684,9.08563762 89.0326811,9.45303725 88.7549018,9.73480663 C88.477123,10.016576 88.1252742,10.2044194 87.6993462,10.2983425 L88.1437906,10.6049724 L89.7549018,12.9005525 L88.8567536,12.9005525 L87.0697166,10.3977901 L86.1623092,10.2734807 L86.1623092,12.9005525 L85.3937907,12.9005525 L85.3937907,7.15745856 Z M87.0604573,7.62983425 L86.8104573,7.62983425 C86.7240371,7.62983425 86.6407047,7.63259664 86.5604573,7.63812155 C86.4802099,7.64364645 86.4045936,7.64917122 86.3336055,7.65469613 C86.2626178,7.66022104 86.2055196,7.66850824 86.1623092,7.67955801 L86.1623092,9.81767956 L86.8845314,9.81767956 C87.3104594,9.81767956 87.6623081,9.72375783 87.9400869,9.5359116 C88.2178663,9.34806538 88.3567536,9.0552506 88.3567536,8.65745856 C88.3567536,8.35911455 88.2425571,8.11326064 88.014161,7.9198895 C87.7857649,7.72651837 87.4678668,7.62983425 87.0604573,7.62983425 Z M92.1111111,10.5966851 L89.9722222,7.09944751 L90.8703704,7.09944751 L92.3888889,9.63535912 L92.5462963,10.140884 L92.5555556,10.140884 L92.7222222,9.61878453 L94.1759259,7.09944751 L95,7.09944751 L92.8796296,10.5883978 L92.8796296,12.9005525 L92.1111111,12.9005525 L92.1111111,10.5966851 Z" id="the-Doodle-Library" fill="#666666" fill-rule="nonzero" opacity="0.595278533"></path>
            </g>
        </g>
        <g id="hand-drawing" transform="translate(258.000000, 329.000000)" fill="#000000">
            <path d="M155.694958,2.34547017 C153.505572,2.94091871 151.99692,4.30265481 150.749188,6.11553854 C148.385855,9.54061166 145.915479,12.8877291 143.406633,16.2132844 C140.939602,19.2635069 138.327058,22.1876734 135.866717,25.2428718 C133.19396,28.5468649 130.619885,31.9288136 127.973889,35.2527102 C125.000071,38.9846301 121.962695,42.6833773 119.087558,46.4998873 C116.533554,49.8884706 114.063177,53.3417404 111.547642,56.7634963 C106.446323,63.6882809 101.154331,70.485351 96.4176313,77.6705407 C91.6207188,84.9602241 86.8840187,92.248249 81.6907087,99.2725515 C76.6496019,106.087866 71.5566457,112.863374 66.3750437,119.587465 C60.8689643,126.553715 55.1069826,133.310978 49.5390184,140.225811 C44.0981689,146.989708 39.0871684,154.07538 33.8888406,161.020068 C32.5725331,162.632258 31.1943407,164.188053 29.8546172,165.785315 C28.0766821,167.903387 26.0913491,169.834034 24.2682548,171.913957 C22.4970099,173.929194 21.1188175,176.120245 19.6034748,178.296369 C19.1518827,178.944894 18.6885825,179.573515 18.2771319,180.240285 C16.6246391,182.895753 15.8853659,185.546246 16.663108,188.707596 C17.8255397,193.476161 23.0339028,196.028794 27.6384704,194.889314 C30.7962705,194.108099 32.4203298,191.96183 34.1648136,189.643064 C35.0596352,188.523488 35.9578018,187.40723 36.7991013,186.246188 C37.394534,185.418531 37.9096836,184.544432 38.4800278,183.706824 C40.2914142,181.519089 42.1329067,179.36121 43.8088154,177.065665 C45.2723086,175.063697 46.6521736,173.003678 48.1089765,170.995075 C52.7285972,164.61598 57.3197843,158.220299 62.1317498,151.983846 C67.5174046,145.236535 73.0954043,138.648453 78.4492804,131.874603 C83.9904836,124.870204 89.5233241,117.847561 94.9006161,110.713788 C97.5533019,107.189197 100.25282,103.69612 102.858674,100.133381 C105.38759,96.6801111 107.784374,93.1422511 110.202901,89.6110256 C115.04999,82.5170606 120.12622,75.5972519 125.215832,68.6774431 C129.385533,63.0215112 133.27257,57.164885 137.53928,51.5736397 C141.889618,45.8845352 146.081063,40.0776679 150.376206,34.3421218 C152.931883,31.1741364 155.492578,28.0127857 157.850893,24.6988408 C160.274437,21.2837195 162.659513,17.8437187 165.031208,14.3970834 C167.578523,10.6966775 165.750411,5.31276112 162.065753,3.17478569 C160.796277,2.43337761 159.339474,2.0535511 157.880999,2.0535511 C157.143398,2.0535511 156.409143,2.1497517 155.694958,2.34547017" id="Fill-41"></path>
            <path d="M14.7823102,188.896017 C13.2669676,194.248419 11.7382445,199.572625 9.9669996,204.853706 C8.413188,209.497873 7.15709273,214.302927 5.31894532,218.854211 C4.59807041,220.481328 3.85712473,222.103469 3.28343541,223.791955 C2.86027681,225.014367 2.4103572,226.216874 1.92029607,227.414406 C1.74467689,227.827405 1.56905771,228.242063 1.39511109,228.658379 C0.401608306,231.016952 0.466838287,233.944436 1.91193325,236.122219 C2.62946304,237.31975 3.59118711,238.273463 4.79208779,238.978381 C5.43267965,239.250397 6.07327151,239.517436 6.71386338,239.782817 C8.13721501,240.164303 9.56223921,240.164303 10.9805731,239.782817 C13.514507,239.399674 15.5332913,237.170473 16.5987143,235.014253 C17.1473152,233.906288 17.6440666,232.804957 18.0939862,231.643915 C18.5472509,230.489508 18.9369582,229.318514 19.3718248,228.157472 C20.3502745,226.004569 21.3588304,223.878204 22.191767,221.660615 C23.295659,218.699958 24.1971708,215.674615 25.1839833,212.674152 C26.1891941,209.609001 27.2997763,206.563755 28.2280491,203.467091 C29.2282421,200.11168 30.1749132,196.736366 31.1282744,193.366027 C32.3776794,188.954069 29.646383,184.236922 25.2090718,183.026122 C24.4764889,182.825427 23.7372158,182.729227 23.0063055,182.729227 C19.2881966,182.729227 15.8259899,185.212197 14.7823102,188.896017" id="Fill-43"></path>
            <path d="M43.4863452,204.620668 C42.56309,204.978933 41.6515429,205.391932 40.8687831,205.984063 C39.9087316,206.707226 39.0055472,207.47849 38.0806196,208.228191 C35.8059331,209.833746 33.3004328,211.144064 30.9571712,212.631856 C27.6873093,214.698511 24.5194738,216.887904 21.0455592,218.611221 C18.2038736,219.732456 15.3772411,220.837104 12.7028119,222.338165 C9.95144476,223.879034 7.22683863,225.428195 4.39184331,226.82808 C0.511495735,228.738823 -0.540546776,234.096201 1.53677723,237.615816 C2.57543923,239.377282 4.29985231,240.692577 6.28685789,241.236608 C8.45617289,241.82708 10.4481961,241.412422 12.415131,240.440465 C14.4656939,239.435334 16.4911685,238.39869 18.4915546,237.297359 C20.1574279,236.378477 21.7948677,235.433057 23.510918,234.617011 C24.5345269,234.228891 25.5531181,233.822527 26.5733819,233.404552 C28.6306352,232.548698 30.4804905,231.608254 32.387213,230.488678 C35.0398989,228.932882 37.5169656,227.066922 40.0508995,225.330336 C42.0629935,223.956989 44.1871493,222.71965 46.1407036,221.261714 C47.1793656,220.483816 48.2314081,219.707576 49.1847694,218.831819 C49.3603886,218.672591 49.5343352,218.510045 49.7082818,218.349158 C49.8052905,218.292764 49.9056443,218.236371 50.0076707,218.184953 C51.4912346,217.407055 52.6151974,216.337238 53.5886294,214.957257 C55.5154227,212.243737 54.6607426,208.135308 52.4128172,205.906108 C50.9894655,204.499588 48.9890794,203.720032 46.9937111,203.720032 C45.7777573,203.720032 44.5651487,204.010292 43.4863452,204.620668" id="Fill-45"></path>
            <path d="M236.077696,122.810019 C235.457175,125.052488 235.776635,127.487358 236.959137,129.489326 C237.979401,131.212644 240.076796,133.176463 242.179208,133.468382 C242.87834,133.562924 243.569109,133.639221 244.256532,133.713859 C244.967372,133.902943 245.629707,134.19818 246.342219,134.420436 C247.497961,134.783676 248.876153,134.835094 250.051965,134.937929 C250.843088,135.00925 251.63421,135.029154 252.423661,135.055692 C255.614912,135.160186 258.761004,135.307804 261.923822,135.642847 C265.81086,136.205123 269.644375,136.876869 273.442767,137.945027 C277.846627,139.182366 282.563257,136.473821 283.77252,132.126549 C284.993492,127.72786 282.302337,123.126817 277.905167,121.889479 C272.750326,120.438176 267.444954,119.608861 262.112822,119.044926 C258.409766,118.656807 254.684967,118.612024 250.980238,118.283615 C250.874867,118.262052 250.76615,118.233856 250.660778,118.205659 C249.411373,117.653335 248.153606,117.112621 246.82559,116.759333 C246.079627,116.563614 245.326973,116.469072 244.584355,116.469072 C240.740804,116.469072 237.146464,118.976922 236.077696,122.810019" id="Fill-47"></path>
            <path d="M153.132256,67.688899 C149.049528,71.7376174 149.969438,78.7287473 154.94197,81.6180826 C157.350462,83.0246017 160.01151,83.4077455 162.580568,84.2801854 C170.339591,87.9258564 177.697198,92.4456261 185.165195,96.6170832 C189.130843,98.8396488 193.136633,101.035676 197.297971,102.89666 C202.126662,105.046246 206.980442,107.119535 211.887743,109.089989 C211.631841,108.983836 211.374266,108.877684 211.118364,108.769873 C214.100545,110.005553 217.20315,111.282699 219.894305,113.049141 C220.581729,113.646248 221.250754,114.263259 221.961594,114.830511 C223.595689,116.134195 225.315084,117.290261 227.004373,118.504378 C228.038018,119.383453 229.009777,120.335507 229.916307,121.345613 C230.347828,121.984186 230.762624,122.631053 231.220906,123.253039 C232.445223,124.921622 233.746477,126.530494 235.042714,128.142684 C235.681633,129.061565 236.282084,130.013619 236.870826,130.964015 C239.249211,134.767256 244.228433,136.218558 248.200772,133.911402 C252.015889,131.695471 253.544613,126.48737 251.172917,122.677494 C249.612416,120.182913 247.841171,117.862488 246.213766,115.419325 C245.280476,114.014464 244.561273,112.433789 243.549372,111.091956 C242.234737,109.362004 241.007076,107.515948 239.374654,106.064646 C237.747249,104.611685 235.976004,103.337856 234.216468,102.052417 C232.374975,100.516525 230.66227,98.8413074 228.548149,97.6421171 C223.742874,94.9169863 218.527821,92.9398981 213.398068,90.9097337 C209.320358,89.1698297 205.28948,87.3586046 201.28369,85.4478617 C197.07552,83.4326249 193.031261,80.9960959 188.961914,78.7221128 C184.675133,76.3320254 180.396716,73.9353035 176.044705,71.6613204 C174.137983,70.6628245 172.184428,69.7107703 170.204113,68.8482821 C168.785779,68.2262955 167.387516,67.644116 165.898934,67.2410686 C165.58282,67.1581371 165.27005,67.0851573 164.958954,67.0121775 C163.361655,65.8080114 161.545251,65.0914828 159.456219,65.0914828 C157.091214,65.0914828 154.79813,66.0369025 153.132256,67.688899" id="Fill-49"></path>
            <path d="M98.6098604,39.7829292 C97.2902077,40.3916468 96.0943247,41.2790144 94.931893,42.1282335 C93.0502589,43.4883109 91.3576246,44.9727857 89.6716804,46.5534611 C86.9872158,49.0613113 84.3997599,51.6786311 81.785543,54.2578024 C76.0503224,59.9137342 71.3387107,66.3989816 66.4130109,72.7349523 C62.0459473,78.3560529 57.9431487,84.1811651 53.6965097,89.900125 C51.0722574,93.114552 48.4312795,96.3123926 45.7535051,99.493647 C44.408764,101.094226 43.0690405,102.708074 41.7293171,104.313629 C41.174026,104.982057 40.6588764,105.680341 40.1219835,106.362038 C39.0114012,107.786802 37.7770493,109.199956 36.7517678,110.682772 C31.8243954,117.843082 27.4991459,125.376585 22.5667558,132.53026 C17.9605156,139.216202 13.7205669,146.155914 8.94539775,152.732386 C7.33137386,154.954952 6.10872986,157.643593 5.16874911,160.202861 C4.92622739,160.856361 4.71715694,161.518155 4.52146699,162.184925 C3.71863646,164.873566 3.83571591,167.58211 4.3190868,170.302265 C4.7372277,172.642594 6.01841143,175.026046 7.70268298,176.72946 C9.48730836,178.524099 11.4141016,179.496057 13.8058676,180.28059 C14.183867,180.409963 14.5769194,180.46138 14.9549188,180.604023 C16.6676239,181.065122 18.3786565,181.065122 20.0913617,180.604023 C22.5015258,179.950522 24.5922303,178.349943 25.8533433,176.205333 C26.7280941,174.715882 27.1663057,173.108669 27.172996,171.378717 C27.0559165,170.529498 26.9438548,169.680278 26.8267753,168.832718 C26.3701654,167.212235 25.5389013,165.805716 24.3446909,164.614819 C24.1272576,164.34778 23.8914262,164.100644 23.6438868,163.870094 C24.8715485,161.466738 26.5073157,159.287296 27.9574283,157.008337 C30.8643439,152.433833 33.6474897,147.788007 36.6463963,143.273214 C39.8811343,138.420059 42.9452708,133.47568 45.9575579,128.481542 C47.3491308,126.174386 48.7791727,123.900403 50.2878251,121.664568 C51.5656637,119.77207 52.9271305,117.957528 54.308668,116.14962 C60.2161627,108.941209 66.1286751,101.76763 71.6197014,94.2391038 C74.1352371,90.799103 76.5403835,87.2944156 79.0676271,83.8660252 C81.3506765,80.7726783 83.6939381,77.7340662 86.0104387,74.6705747 C87.3267463,73.0218954 88.6547618,71.4014129 90.0580426,69.8124443 C91.6252347,68.0576127 93.3111789,66.4122507 94.9904327,64.7602542 C97.890658,61.8957983 100.742379,58.8969934 103.873418,56.2647459 C104.679594,55.7074459 105.497477,55.1634149 106.36052,54.7006568 C106.554538,54.6426048 106.750227,54.5911872 106.945917,54.5430869 C107.708606,54.5182074 108.466278,54.5414283 109.227294,54.5994804 C109.877921,54.7288536 110.511823,54.8864235 111.145725,55.0788247 C111.956918,55.5200206 112.746368,55.9943891 113.539163,56.4737334 C117.583422,58.9086038 123.044342,57.379346 125.404329,53.3886797 C127.814494,49.3001541 126.324239,44.0522455 122.293361,41.6289855 C119.935046,40.2174905 117.549971,38.9917622 114.858816,38.2934785 C112.651032,37.7162749 110.142186,37.5537291 107.842412,37.5354841 C107.783872,37.5354841 107.725332,37.5338255 107.668465,37.5338255 C104.406966,37.5338255 101.525139,38.4278276 98.6098604,39.7829292" id="Fill-51"></path>
            <path d="M155.111903,7.25253013 C153.79225,12.0144599 156.692475,17.2490995 161.559635,18.5063418 C162.792315,18.8281162 164.009941,19.1731115 165.209169,19.5861106 C165.49016,19.737046 165.766133,19.8962746 166.035415,20.065455 C166.254521,20.2794184 166.461919,20.5000163 166.664299,20.7289074 C167.907014,22.5484257 168.918915,24.5105862 170.569735,26.0415027 C173.608784,28.8528823 178.064493,29.5926317 181.72908,27.4679254 C183.788006,26.2753696 185.328437,24.2916469 185.962338,22.0110292 C186.06771,21.2016173 186.178099,20.3922053 186.290161,19.5827934 C186.285143,18.4035067 186.069382,17.2822721 185.641206,16.2157723 C185.077552,14.1275558 184.477102,12.1073432 183.120653,10.3176803 C181.376169,8.01715904 179.880897,6.42984913 177.39714,4.84253921 C174.170765,2.77588493 170.151595,1.81719618 166.466937,0.858507431 C165.682505,0.656154443 164.893055,0.559953842 164.111967,0.559953842 C160.04262,0.559953842 156.245901,3.1805909 155.111903,7.25253013" id="Fill-53"></path>
            <path d="M181.067748,15.5319187 C175.038156,22.1531739 169.647484,29.2537734 164.290263,36.4207182 C159.03674,43.443362 153.915351,50.5572306 148.812359,57.6976373 C144.010429,64.4283621 139.246968,71.1872836 134.366427,77.8599563 C129.663178,84.2805171 125.266008,90.8901619 120.711618,97.4135578 C119.072505,99.7721311 117.471862,102.162218 115.923068,104.585478 C114.295664,107.138112 112.88402,109.833387 111.303447,112.412558 C109.839954,114.791035 108.448381,117.22093 106.867809,119.519792 C105.123325,122.065791 103.306921,124.567007 101.522295,127.088126 C100.052112,129.174684 98.5183712,131.221434 97.0414975,133.294723 C96.1266052,134.576845 95.2903234,135.905409 94.3486701,137.162651 C93.3886186,138.464676 92.4804165,139.773336 91.6842762,141.18649 C91.2611176,141.927898 90.8362865,142.665989 90.3596059,143.374224 C90.2308185,143.528477 90.1003585,143.676095 89.9715711,143.835324 C88.5599274,145.591814 88.5147682,145.683039 87.6517254,147.814379 C87.2670357,149.239144 87.2670357,150.658932 87.6517254,152.083696 C88.2070165,154.092298 89.5668107,155.835519 91.3765245,156.885433 C94.4891654,158.691682 98.9248041,158.155944 101.390163,155.518721 C102.709816,154.311237 103.786947,152.8052 104.757033,151.358874 C105.768934,149.842885 106.723968,148.306993 107.847931,146.86896 C107.409719,147.42626 106.971508,147.988536 106.533296,148.545836 C110.512325,143.453838 114.198655,138.127974 117.901711,132.828648 C120.169707,129.582707 122.352403,126.323497 124.389585,122.921645 C126.41506,119.539696 128.278295,116.041643 130.387398,112.711112 C132.556713,109.289356 134.856488,105.953849 137.149573,102.616683 C139.489489,99.2281001 141.729052,95.7748303 144.017119,92.3480986 C146.224903,89.0358123 148.569837,85.809775 150.851214,82.5372959 C153.227927,79.1437368 155.547773,75.7020773 157.867618,72.2620765 C166.290649,59.7858538 175.046519,47.5285703 184.101779,35.4985193 C186.63404,32.3653653 189.201425,29.2769943 191.919341,26.293117 C193.310914,24.7638592 194.167266,23.0090275 194.167266,20.9092006 C194.167266,18.9005984 193.351055,16.9500483 191.919341,15.5319187 C190.467556,14.092227 188.400267,13.3209636 186.349704,13.3209636 C184.386114,13.3209636 182.440923,14.0275404 181.067748,15.5319187" id="Fill-55"></path>
            <path d="M119.971007,104.325239 C118.331894,105.950698 117.396931,108.186532 117.396931,110.493688 C117.396931,112.631664 118.264992,115.22908 119.971007,116.655502 C121.207031,117.692147 122.341029,118.768598 123.378019,119.987692 C124.706034,121.727596 126.010634,123.475793 127.216552,125.303605 C128.915877,127.896045 130.235529,130.733963 131.730801,133.435873 C133.483648,136.61381 135.634565,139.60598 137.270332,142.850263 C137.004394,142.991246 136.736784,143.130571 136.465829,143.266579 C133.654249,144.124091 130.747334,144.626656 127.870524,145.213812 C124.955246,145.810919 122.023242,146.328412 119.114654,146.957033 C112.732151,148.332038 106.552029,150.426889 100.109314,151.513293 C97.2458848,151.767063 94.451031,151.62608 91.5825844,151.355723 C87.4730956,150.974238 83.1026869,151.77038 79.2357198,153.138751 C76.0160348,154.271596 72.8799781,155.596842 69.7656646,156.983458 C67.0912354,158.005175 64.4017531,159.04016 61.914651,160.453314 C59.967787,161.561279 58.2433739,162.908088 56.4788193,164.281434 C52.5850912,167.301802 50.3304755,171.785081 48.5475227,176.248457 C47.5222412,178.81436 46.8816493,181.658912 46.9201183,184.418874 C46.978658,188.681556 48.7298321,192.647343 52.0749593,195.355887 C53.5652135,196.560053 54.9952554,197.850468 56.7665002,198.639977 C58.5762141,199.444413 60.3792376,200.07801 62.2608717,200.681751 C65.6628661,201.764838 69.1652143,202.031877 72.7060315,202.363603 C75.9073182,202.831337 79.0935519,203.325609 82.3450155,203.415175 C84.5527995,203.479862 86.762256,203.428444 88.9767303,203.370392 C90.8717448,203.325609 92.7650868,203.272533 94.6601014,203.299071 C98.7562097,203.357123 102.8473,203.61587 106.950099,203.673922 C111.131508,203.726998 115.319607,203.887885 119.507706,203.947596 C128.405745,204.076969 137.310474,203.97911 146.208512,203.940961 C154.76702,203.89452 163.352289,204.037162 171.890726,203.325609 C180.397385,202.612398 188.813725,201.348521 197.208322,199.812629 C204.512407,198.472455 211.883395,197.43581 219.232639,196.399166 C222.721607,195.906553 226.210575,195.362522 229.672781,194.727266 C233.489571,194.027324 237.264547,193.211277 241.067957,192.426745 C248.032512,190.998663 255.068987,190.034999 262.112152,189.079627 C265.241519,188.68819 268.364195,188.291777 271.480181,187.858875 C274.049239,187.502269 276.479474,186.893552 278.759178,185.618064 C281.875164,183.868208 283.378799,180.045064 282.437145,176.649846 C281.888545,174.667782 280.548821,172.951099 278.759178,171.90782 C276.961172,170.862882 275.084556,170.700337 273.104241,171.018794 C271.941809,171.139874 270.782722,171.285833 269.623636,171.438427 C269.827688,171.410231 270.030069,171.383693 270.232449,171.357154 C262.510223,172.302574 254.808067,173.398929 247.12431,174.603095 C239.525853,175.795651 232.077928,177.661611 224.499542,178.937098 C216.998094,180.200975 209.458177,181.146395 201.951712,182.372123 C194.592432,183.569655 187.273294,184.964564 179.902306,186.055943 C172.061328,186.944969 164.232057,187.384506 156.335885,187.354651 C147.645244,187.321478 138.962966,187.28333 130.273998,187.19874 C122.048331,187.120784 113.842733,186.770813 105.623756,186.454014 C101.736718,186.298103 97.8747687,185.909983 94.0078016,185.564988 C90.4586216,185.251507 86.9060965,185.079009 83.3636068,184.735673 C81.764636,184.46034 80.200789,184.112027 78.6135261,183.705663 C76.1933266,183.085335 73.7112422,182.808343 71.2308303,182.53301 C69.3107273,182.196308 67.357173,181.700378 65.5006274,181.065122 C65.4822292,181.05517 65.4655036,181.045218 65.4487779,181.035267 C65.4387426,180.623926 65.4420877,180.210927 65.4571408,179.797928 C65.56753,179.398198 65.701335,179.003444 65.8518658,178.607031 C65.9806532,178.326722 66.1144583,178.053048 66.2616439,177.787667 C66.4573338,177.610194 66.6580414,177.437696 66.8620942,177.268516 C68.3623838,176.228554 69.9646997,175.344504 71.6238828,174.574899 C73.1041016,174.02755 74.6160991,173.563134 76.0795923,172.977637 C78.1485534,172.151639 80.1974439,171.260954 82.2496794,170.383538 C84.6615161,169.439777 87.0683352,168.565678 89.5989239,168.034916 C90.9971871,167.966913 92.3904326,167.961937 93.7920409,167.961937 C96.5618062,167.968571 99.2596513,167.605331 101.997638,167.237115 C104.774094,166.860606 107.62916,166.173932 110.320315,165.37779 C114.607095,164.113913 118.867115,162.765446 123.237523,161.800122 C127.209862,160.919389 131.24743,160.270865 135.25322,159.559312 C137.552995,159.151289 139.871168,158.781414 142.085643,158.003516 C144.313497,157.220642 146.855794,156.190632 148.827747,154.862069 C150.612372,153.662878 152.161166,152.108741 153.186447,150.216243 C154.395711,147.962164 154.735241,146.27036 155.068081,143.795682 C155.578213,140.018979 154.532861,136.441312 153.009156,133.02785 C151.873485,130.461947 150.187541,128.154792 148.678888,125.796218 C146.516264,122.420904 144.646337,118.864799 142.308094,115.598954 C140.622149,113.25365 138.773967,111.075868 136.899023,108.886475 C135.487379,107.241113 134.077408,105.725124 132.404844,104.325239 C130.561679,102.782712 128.673355,101.772606 126.18458,101.772606 C123.864735,101.772606 121.610119,102.699781 119.971007,104.325239" id="Fill-57"></path>
            <path d="M17.2585407,209.194841 C16.1278877,209.85 15.2330661,210.744003 14.5673858,211.856944 C13.639113,213.439278 13.1289811,215.809462 13.8147322,217.585856 C14.6326158,219.697293 15.873658,221.828634 18.0747517,222.813861 C18.4711493,222.991334 18.8357681,223.140611 19.1870065,223.27496 C19.3810239,223.636542 19.5666784,224.001441 19.7606958,224.356388 C21.7928606,228.075038 26.8891619,229.227787 30.4751383,227.141229 C34.251787,224.951836 35.31721,220.234689 33.2850452,216.516039 C32.7431346,215.519201 32.2530734,214.456019 31.5740126,213.542113 C31.0571905,212.848805 30.5085896,212.032759 29.8295288,211.43731 C28.4496638,210.224851 27.1701526,209.493395 25.3855272,208.960974 C24.9105192,208.819991 24.4137678,208.738718 23.9103261,208.679007 C23.09077,208.320743 22.17086,208.15488 21.2409146,208.15488 C19.8209081,208.15488 18.3808308,208.539682 17.2585407,209.194841" id="Fill-59"></path>
        </g>
    </g>
</svg>